<?xml version="1.0" encoding="UTF-8" standalone="no"?>
<svg
   version="1.0"
   width="420.000000pt"
   height="420.000000pt"
   viewBox="0 0 420.000000 420.000000"
   preserveAspectRatio="xMidYMid meet"
   id="svg13"
   sodipodi:docname="C2-210505_COS7_TOMM20-Halo-PAJF646_Mito-mNeonGreen_7.czi.tif_avg17.tif_musical_4_6_50frames_croped46pxs_avg_norm_gauss1.5px_Simple_Segmentation_binary_close1px_erode1px_erode1px_poly.svg"
   inkscape:version="1.3 (1:1.3+202307231459+0e150ed6c4)"
   xmlns:inkscape="http://www.inkscape.org/namespaces/inkscape"
   xmlns:sodipodi="http://sodipodi.sourceforge.net/DTD/sodipodi-0.dtd"
   xmlns="http://www.w3.org/2000/svg"
   xmlns:svg="http://www.w3.org/2000/svg">
  <defs
     id="defs13" />
  <sodipodi:namedview
     id="namedview13"
     pagecolor="#ffffff"
     bordercolor="#000000"
     borderopacity="0.25"
     inkscape:showpageshadow="2"
     inkscape:pageopacity="0.0"
     inkscape:pagecheckerboard="0"
     inkscape:deskcolor="#d1d1d1"
     inkscape:document-units="pt"
     inkscape:zoom="1.5660714"
     inkscape:cx="280"
     inkscape:cy="279.68073"
     inkscape:window-width="3770"
     inkscape:window-height="2096"
     inkscape:window-x="70"
     inkscape:window-y="27"
     inkscape:window-maximized="1"
     inkscape:current-layer="svg13" />
  <metadata
     id="metadata1">&#10;Created by potrace 1.16, written by Peter Selinger 2001-2019&#10;</metadata>
  <path
     d="m 361.4,41.9 0.5,0.8 0.6,4.3 0.5,4.3 3.3,3.6 3.2,3.6 3.5,5.3 3.4,5.3 2.5,-0.3 2.6,-0.3 0.3,-3.3 0.3,-3.3 -4.3,-4.8 -4.3,-4.7 -4.5,-5.7 -4.5,-5.6 -1.8,-0.1 h -1.8 z"
     id="path2"
     style="fill:none;stroke:#000000;stroke-width:0.1;stroke-opacity:1" />
  <path
     d="m 331.9,58.9 -1.2,4.2 1.5,1.5 1.5,1.5 8.4,1.8 8.4,1.9 3.1,1.3 3.1,1.2 1.7,-0.6 1.6,-0.6 v -1.2 -1.1 l -3.4,-3.2 -3.5,-3.1 -5.5,-3.4 -5.6,-3.3 -4.4,-0.5 -4.4,-0.5 z"
     id="path3"
     style="fill:none;stroke:#000000;stroke-width:0.1;stroke-opacity:1" />
  <path
     d="m 248.5,58.7 -3,0.5 -1.8,1.6 -1.8,1.6 0.3,2.5 0.3,2.5 8.5,3 8.6,2.9 2.5,-0.6 2.6,-0.7 1.1,-2.5 1.2,-2.6 v -3.4 -3.4 l -0.7,-0.4 -0.8,-0.5 -7,-0.5 -7,-0.5 z"
     id="path4"
     style="fill:none;stroke:#000000;stroke-width:0.1;stroke-opacity:1" />
  <path
     d="m 147.3,69.6 -1.3,0.6 v 2.4 2.5 l 1.1,2.2 1.1,2.2 5.8,5.6 5.8,5.6 2.2,7.1 2.1,7.2 1.7,0.9 1.7,0.8 5.5,1.3 5.5,1.2 3.3,2.5 3.2,2.4 4.8,6.2 4.7,6.2 6.5,6.1 6.5,6.1 3.6,2.1 3.6,2.2 h 2.9 2.9 l 3,1.8 3,1.8 1.8,-0.4 1.7,-0.3 v -1.3 -1.2 l -3.2,-3 -3.3,-3.1 -5.5,-3.8 -5.5,-3.8 L 199,116 185.5,102.3 178.7,99 171.9,95.7 169,92.3 166.1,89 l -1.6,-5.8 -1.6,-5.7 -0.9,-2.2 -0.9,-2.2 -2.3,-1.5 -2.3,-1.5 -4,-0.5 -4,-0.5 z"
     id="path5"
     style="fill:none;stroke:#000000;stroke-width:0.1;stroke-opacity:1" />
  <path
     d="m 398,92.8 v 1.9 l 2,1.8 2.1,1.9 2,4.5 2,4.6 -5.3,4.9 -5.3,4.9 -5.2,2.3 -5.1,2.3 -0.6,1 -0.6,1 -5.3,-0.6 -5.2,-0.5 -3.4,2.4 -3.4,2.3 -3.3,6.3 -3.2,6.4 -2.3,2.4 -2.3,2.4 -6,3 -5.9,3 h -1.2 -1.1 l -4,-1.8 -3.9,-1.8 -9,0.6 -9,0.7 -5.5,1.8 -5.5,1.7 -12.7,0.5 -12.7,0.4 -4.8,-2.4 -4.8,-2.4 -5,-1.7 -5.1,-1.6 -8.8,-0.5 -8.8,-0.5 -3.4,2.6 -3.4,2.6 0.9,1.7 0.9,1.6 -0.1,2.8 -0.2,2.8 -3.7,3.6 -3.6,3.5 -8.4,1 -8.3,1 -8.5,0.3 -8.5,0.2 -9.4,4.2 -9.4,4.2 -4.6,2.6 -4.6,2.7 -3.2,2.4 -3.2,2.4 -4.8,1.2 -4.8,1.3 -9.1,3.6 -9.1,3.6 -4.9,0.6 -4.9,0.7 -8.1,-1.1 -8,-1 -6.6,-3 -6.6,-3.1 h -0.7 -0.6 l -9.6,-4.7 -9.5,-4.6 -4.9,-0.5 -4.9,-0.5 v 2.4 2.4 l 0.6,2.2 0.6,2.2 5.1,2.6 5.1,2.5 h 3 l 3.1,0.1 6.5,2.3 6.5,2.4 6.5,2.5 6.5,2.5 12.9,1.7 12.8,1.7 4.4,-0.7 4.5,-0.6 5.8,-4.9 5.9,-4.9 2.9,-0.7 2.8,-0.7 3.5,-1.7 3.5,-1.8 4.2,-0.7 4.1,-0.6 5.9,-4.6 5.8,-4.6 3.4,-1.4 3.4,-1.4 5.6,-0.3 5.6,-0.2 5,-2.6 5,-2.5 4,-0.7 4,-0.7 6.3,-2 6.3,-2.1 1.4,1.2 1.5,1.2 3.1,-1.2 3.1,-1.3 0.9,-2.5 1,-2.5 -2.1,-1.4 -2,-1.4 -1,-1.8 -1,-1.9 2.2,-2.7 2.1,-2.7 2.8,0.6 2.9,0.5 6.2,4 6.3,3.9 4,1 4,1 6.1,1.1 6,1.1 h 4 3.9 l 7,-2.1 7,-2 3,-1.1 3,-1 5,-2 5,-2.1 4.8,-0.4 4.8,-0.5 1.9,1.7 1.8,1.6 -0.5,2 -0.6,2 -4.1,3.3 -4.1,3.3 -2,1.1 -2,1 -5.3,0.7 -5.3,0.7 -2.7,2.2 -2.7,2.2 -5,2.2 -5,2.2 -6.9,0.9 -6.9,1 -8.6,5.1 -8.6,5.1 -1.5,0.9 -1.5,0.9 -5,2.7 -5,2.7 -2.5,1.7 -2.5,1.7 -2.5,0.8 -2.5,0.8 -4,3.4 -4,3.5 -9.2,5.9 -9.2,5.9 h -1.1 -1 l -4.6,4.2 -4.5,4.1 -5.2,1.8 -5.2,1.7 -7.5,1.2 -7.5,1.2 -11,3.5 -11,3.4 -3.4,1.7 -3.4,1.7 -3.8,4.8 -3.9,4.9 v 1.9 1.9 h 1.2 1.1 l 3.4,-4 3.4,-4 4.6,-2 4.6,-2 h 2.9 2.9 l 6.7,-2.8 6.7,-2.9 5.5,-1.3 5.5,-1.4 0.6,0.2 0.7,0.1 7.4,-1.3 7.4,-1.2 5.8,-4.5 5.8,-4.4 3.6,-2.2 3.7,-2.3 h 3.7 3.7 l 2.8,3.7 2.8,3.8 6.2,6.9 6.3,6.8 1.1,3.8 1.1,3.8 -2.6,5.8 -2.7,5.8 -2.4,3.2 -2.4,3.1 -5.6,3.8 -5.7,3.7 -12.6,0.3 -12.7,0.2 -2.6,1.1 -2.7,1.1 -1.6,2.3 -1.6,2.2 v 3.8 3.8 l 2.6,1.2 2.6,1.2 7.2,-3.6 7.1,-3.7 2,-0.7 2,-0.7 2.5,-0.2 2.5,-0.3 6.3,-3.6 6.4,-3.6 4.5,-4 4.5,-4 1.8,1 1.9,1 h 1.1 1.1 l 1.7,-3.8 1.6,-3.7 0.2,-1 0.1,-1 0.7,-5.7 0.8,-5.7 -1.7,-7.8 -1.7,-7.8 -1.8,-3.6 -1.9,-3.5 -1.3,-1.1 -1.3,-1.2 -5.7,-2.1 -5.8,-2.1 -2,-2.6 -2,-2.6 v -1 -1 l 4.8,-4.7 4.7,-4.8 15.6,0.1 15.6,0.2 1.5,1.3 1.5,1.2 5.9,2 5.8,2 2.4,2.3 2.3,2.2 1.5,3 1.4,3 7.7,4.8 7.7,4.8 2.2,-0.5 2.3,-0.6 1.5,-1.6 1.6,-1.5 v -3.3 -3.3 l -3.9,-2.7 -3.9,-2.7 -4.8,-1.5 -4.7,-1.4 h -3.1 -3 l -6.7,-4 -6.7,-4 h -1 -1 l -3.6,-4 -3.6,-4.1 1,-1.8 1,-1.9 3.1,-2.6 3.1,-2.6 h 3.2 3.2 l 4.4,-2.4 4.5,-2.4 8,-4 8,-4 5.5,-2 5.5,-2 3.5,-0.6 3.5,-0.6 8.1,-5.5 8.2,-5.4 3.4,-0.6 3.5,-0.7 4,1.1 3.9,1.1 2.2,2.3 2.2,2.3 -1.5,2 -1.4,1.9 0.6,3.6 0.5,3.6 -1.5,3 -1.6,3 -3.9,3.4 -4,3.4 -2.7,1.8 -2.6,1.9 0.3,3.6 0.3,3.6 3.5,0.9 3.6,0.8 2.5,-1 2.5,-0.9 1.3,-4.3 1.3,-4.2 2.3,-5.1 2.4,-5.2 1.8,-1.5 1.8,-1.6 4.9,-0.7 4.9,-0.6 1.8,1.6 1.7,1.5 9.4,-1.6 9.3,-1.5 5,-1.5 5,-1.4 3.5,-3.6 3.4,-3.5 -1.6,-1.6 -1.6,-1.7 -4.9,1.2 -4.8,1.2 -3.5,2.2 -3.5,2.1 -11.3,0.4 -11.2,0.4 -2.4,-1.6 -2.5,-1.6 -3.4,-5.2 -3.5,-5.3 -0.6,-2.5 -0.7,-2.5 -1.1,-2.3 -1.2,-2.2 3.4,-3.5 3.4,-3.5 5.5,-1.7 5.6,-1.8 1.3,-3 1.3,-3 0.8,-1.5 0.7,-1.5 7,-3.5 7,-3.5 2.5,-1.7 2.5,-1.6 3.2,-0.3 3.1,-0.4 4.5,3.8 4.5,3.7 h 0.5 0.6 v -9.8 -9.7 l -4.6,-3 -4.7,-3 -2.9,-1.7 -2.9,-1.6 -1.8,-1.6 -1.8,-1.6 h -1.6 -1.7 z"
     id="path6"
     style="fill:none;stroke:#000000;stroke-width:0.1;stroke-opacity:1" />
  <path
     d="m 76.9,93.8 -2.6,1.7 -3.6,2.5 -3.7,2.5 -3,5.7 -3,5.7 -3.5,5.1 -3.5,5.2 v 2.9 2.9 h 1.9 1.9 l 3.6,-4.2 3.6,-4.2 v -0.9 -0.9 l 5.1,-5.9 5,-5.8 2.5,-6.3 L 80,93.6 79.8,92.8 79.5,92 Z"
     id="path7"
     style="fill:none;stroke:#000000;stroke-width:0.1;stroke-opacity:1" />
  <path
     d="m 391,141.5 -1.2,1.5 h -1.4 -1.3 l 0.5,1.4 0.5,1.4 2.8,1.2 2.7,1.1 3,-1.2 2.9,-1.2 7,-0.1 7,-0.1 0.3,-1.7 0.3,-1.7 -3.8,-1 -3.8,-1.1 h -7.1 -7.2 z"
     id="path8"
     style="fill:none;stroke:#000000;stroke-width:0.1;stroke-opacity:1" />
  <path
     d="m 399,242.3 -3.4,1.2 -1.9,3.3 -2,3.3 1,3.2 0.9,3.2 3.3,2.2 3.4,2.3 h 2.2 2.2 l 1.7,-1.9 1.7,-1.9 1.1,-6.7 1.1,-6.8 -1.8,-1.3 -1.9,-1.4 -2,0.1 h -2.1 z"
     id="path9"
     style="fill:none;stroke:#000000;stroke-width:0.1;stroke-opacity:1" />
  <path
     d="m 72.4,267 -8,0.7 -5.5,1.6 -5.4,1.6 -7,1.5 -7,1.5 -3.2,0.6 -3.3,0.7 -0.5,0.8 -0.5,0.8 0.6,1.5 0.5,1.5 1.9,0.5 1.9,0.5 0.4,-0.4 0.3,-0.4 12,-0.4 11.9,-0.5 4,-1.2 4,-1.1 4.5,-0.4 4.5,-0.4 3.8,1.2 3.8,1.2 4.2,-2 4.2,-2 5,0.7 5,0.6 4.2,-0.7 4.1,-0.7 1.2,0.7 1.2,0.7 2.9,-1.1 3,-1.1 1.6,1.1 1.7,1.1 3.3,-1 3.3,-1 2,1.8 2,1.8 v 1.4 1.3 l 2.5,4 2.5,4 h 2.6 2.5 l 3,-1.6 3.1,-1.5 -6.1,-5.9 -6,-5.9 -7.8,-2.7 -7.8,-2.7 -13.5,-0.3 -13.5,-0.3 -8,-0.4 -8,-0.4 z"
     id="path10"
     style="fill:none;stroke:#000000;stroke-width:0.1;stroke-opacity:1" />
  <path
     d="m 390.8,279.9 -8.7,4.6 -2.9,2.7 -2.8,2.8 h -1.7 -1.7 v 0.9 1 l 1.5,1.5 1.6,1.6 6.7,-0.5 6.7,-0.5 7,-3.1 7,-3 2.5,-1.4 2.5,-1.4 0.3,-1.8 0.3,-1.8 -3,-3.3 -3,-3.2 -1.8,0.1 -1.8,0.1 z"
     id="path11"
     style="fill:none;stroke:#000000;stroke-width:0.1;stroke-opacity:1" />
  <path
     d="M 256.2,294.1 255,296 v 1.2 1.3 l 3.6,2.4 3.6,2.5 1.9,-1.2 1.9,-1.2 3.3,1.6 3.2,1.7 8.8,8.8 8.7,8.9 v 2.5 2.5 l -3.6,3.9 -3.5,4 -3.5,1.1 -3.5,1.2 -3.1,-1.1 -3.2,-1.1 -1,1 -1,1 h -7.1 -7 l -3.5,1.9 -3.5,2 -8.3,4.1 -8.3,4.1 -3.2,-0.6 -3.2,-0.6 -3,-1.4 -3,-1.4 -3,-3.1 -2.9,-3.1 1,-1.7 1.1,-1.7 6.9,-3.5 6.9,-3.5 9.8,-9.8 9.7,-9.8 v -2 -1.9 l -2.6,-1 -2.5,-1 h -5.5 -5.4 l -1.2,2.7 -1.1,2.8 -2.6,5.4 -2.6,5.5 -5.1,5.3 -5,5.3 h -1.5 l -1.4,-0.1 -6,-3.2 -6,-3.2 -3.2,-5 -3.1,-5 -1.9,-2.3 -1.8,-2.3 -3.6,-0.5 -3.6,-0.6 -1.6,1.7 -1.7,1.6 v 3.5 3.6 l 2.9,2.8 2.8,2.9 2.9,0.7 2.9,0.7 7.1,3.3 7.1,3.3 1.1,1.4 1.2,1.4 -2.4,2.2 -2.3,2.2 -2.9,0.7 -2.9,0.6 H 190 l -5.5,-0.1 -9.5,-1.2 -9.5,-1.2 -2,-0.8 -2,-0.9 -3.3,-1.2 -3.3,-1.3 -5.9,-6.5 -6,-6.5 v -2.4 -2.4 l -1,-1.9 -1,-1.8 -2.9,-1 -3,-1.1 -1.1,1.4 -1.1,1.3 -0.6,3.6 -0.6,3.6 -3.6,2.9 -3.6,2.9 -4,1.1 -4,1 -10.7,1 -10.7,1 -2.1,1.3 -2.1,1.3 0.3,2.5 0.3,2.5 5.4,1.8 5.3,1.8 6.2,-1.1 6.1,-1.1 2.5,-0.5 2.5,-0.6 4.1,-4.5 4.2,-4.5 4,-0.8 4.1,-0.7 8,7.3 8.1,7.4 2.8,0.6 2.7,0.7 4.5,2.1 4.5,2.1 15.5,-0.2 15.5,-0.3 10.5,1.1 10.4,1.1 2.2,1.5 2.2,1.4 4.9,-0.1 h 4.8 l 4.7,0.6 4.8,0.6 4.2,-2 4.3,-2 6,-1.6 6,-1.6 5.5,0.2 5.5,0.1 5.5,-1.8 5.5,-1.8 5.5,-2.9 5.5,-2.9 5,-3 5,-2.9 7,0.6 7,0.7 1.7,0.9 1.8,0.9 6.7,0.1 6.8,0.1 5.5,-1.2 5.5,-1.1 2.1,0.4 2.1,0.4 6.9,-2.2 6.9,-2.2 1.5,-4.3 1.5,-4.2 -1.6,-2.7 -1.5,-2.7 -2.8,0.2 -2.8,0.2 -2.6,1.8 -2.5,1.8 -1.6,1 -1.6,1 -4.1,3.2 -4.2,3.3 -6.3,-0.6 -6.4,-0.6 -15.4,-0.4 -15.4,-0.3 -2.4,-2.3 -2.3,-2.4 -1.7,-5.9 -1.6,-6 -0.9,-1.2 -1,-1.2 -4.6,-0.7 -4.7,-0.7 -2.4,-1.8 -2.4,-1.9 h -0.9 -0.9 l -6.7,-3.8 -6.7,-3.8 -1.6,-0.6 -1.5,-0.6 z"
     id="path12"
     style="fill:none;stroke:#000000;stroke-width:0.1;stroke-opacity:1" />
</svg>
