<?xml version="1.0" encoding="UTF-8" standalone="no"?>
<svg
   version="1.0"
   width="378.000000pt"
   height="378.000000pt"
   viewBox="0 0 378.000000 378.000000"
   preserveAspectRatio="xMidYMid meet"
   id="svg8"
   sodipodi:docname="C2-Sec61b_Halo-paJF646+400uMBSA_005.czi.tif_avg17.tif_musical_NImgs=11_NFrames=10_th=4.0_alpha=6.0_gauss=1.5pxs_croped=67_usharp_r=4_mask=0.9_Simple_Segmentation_erode_disk2_close_disk2_maxReg_poly.svg"
   inkscape:version="1.1.2 (0a00cf5339, 2022-02-04)"
   xmlns:inkscape="http://www.inkscape.org/namespaces/inkscape"
   xmlns:sodipodi="http://sodipodi.sourceforge.net/DTD/sodipodi-0.dtd"
   xmlns="http://www.w3.org/2000/svg"
   xmlns:svg="http://www.w3.org/2000/svg">
  <defs
     id="defs12" />
  <sodipodi:namedview
     id="namedview10"
     pagecolor="#ffffff"
     bordercolor="#666666"
     borderopacity="1.0"
     inkscape:pageshadow="2"
     inkscape:pageopacity="0.0"
     inkscape:pagecheckerboard="0"
     inkscape:document-units="pt"
     showgrid="false"
     inkscape:zoom="1.7321429"
     inkscape:cx="252"
     inkscape:cy="252"
     inkscape:window-width="3766"
     inkscape:window-height="2096"
     inkscape:window-x="74"
     inkscape:window-y="27"
     inkscape:window-maximized="1"
     inkscape:current-layer="svg8" />
  <metadata
     id="metadata2">
Created by potrace 1.16, written by Peter Selinger 2001-2019
</metadata>
  <path
     style="fill:none;stroke:#000000;stroke-width:0.1;stroke-opacity:1"
     d="m 217.9,331.5 2.4,0.4 6.6,0.1 6.6,0.1 2.5,-0.6 2.5,-0.7 2.3,-0.5 2.2,-0.5 3,1.2 2.9,1.2 2.6,3.3 2.5,3.4 v 2.1 2.1 l 1.7,3.7 1.6,3.7 -0.1,0.7 -0.2,0.7 4.5,6.5 4.4,6.5 -0.2,2.1 -0.1,2.1 -3.6,2.7 -3.5,2.7 -8.4,-0.2 -8.3,-0.2 -3.7,-2.6 -3.6,-2.6 -4,-2.7 -4,-2.8 -7.2,-2.8 -7.2,-2.7 -6.3,-4.8 -6.3,-4.8 -2.2,-1.2 -2.3,-1.1 -1,-2 -1,-1.9 5.7,-4.7 5.8,-4.6 3,-1.4 3,-1.3 2.5,0.4 2.5,0.5 z"
     id="path1185" />
  <path
     style="fill:none;stroke:#000000;stroke-width:0.1;stroke-opacity:1"
     d="m 282.3,334.2 5.3,5.3 1.2,1.6 1.2,1.6 -2.5,4.6 -2.4,4.6 -1.7,2.6 -1.6,2.5 h 0.8 0.8 l -1.2,1.2 -1.1,1.1 -3.2,0.4 -3.3,0.3 -3.3,-3.2 -3.4,-3.3 -2.3,-4 -2.3,-4 -1.3,-3.8 -1.2,-3.8 1.6,-2.3 1.5,-2.4 3.8,-1.2 3.8,-1.2 1,-0.9 0.9,-0.9 h 1.8 1.9 z"
     id="path1183" />
  <path
     style="fill:none;stroke:#000000;stroke-width:0.1;stroke-opacity:1"
     d="m 171.2,311.1 3.8,1 2.4,3.5 2.4,3.6 3.4,2.3 3.3,2.2 2.1,0.7 2.1,0.7 1.9,2 1.9,2.1 -4.4,3.9 -4.4,3.9 h -3.6 -3.7 l -5,-3.1 -4.9,-3.2 -7.4,-3.4 -7.3,-3.4 -4.5,-0.8 -4.5,-0.9 -2.6,-2.6 -2.6,-2.5 1.9,-2.1 1.8,-2 h 2.8 2.8 l 4.3,-1.4 4.3,-1.4 2,-0.5 2,-0.4 3,0.5 3,0.4 z"
     id="path1181" />
  <path
     style="fill:none;stroke:#000000;stroke-width:0.1;stroke-opacity:1"
     d="m 296,304.8 2.5,1.9 4.7,6.9 4.7,6.9 1,2.7 0.9,2.6 -2.1,1.9 -2.2,2 -4,2.2 -4,2.3 -1.6,0.3 -1.7,0.3 -6.8,-6.6 -6.9,-6.7 0.3,-7 0.4,-7 2.6,-2.8 2.7,-2.9 3.5,0.6 3.5,0.5 z"
     id="path1179" />
  <path
     style="fill:none;stroke:#000000;stroke-width:0.1;stroke-opacity:1"
     d="m 198.1,301.7 5.4,2.8 1.2,2.5 1.1,2.5 0.9,5.2 0.9,5.3 -2.3,2.2 -2.3,2.1 -3.7,-0.1 -3.7,-0.2 -1,-1 -1,-1 h -1.4 -1.5 l -5.6,-5.5 -5.7,-5.5 0.1,-2.3 v -2.2 l 3.5,-3.7 3.5,-3.8 h 3.1 3 z"
     id="path1177" />
  <path
     style="fill:none;stroke:#000000;stroke-width:0.1;stroke-opacity:1"
     d="m 235.4,296.6 7.1,1.6 6,1.4 6,1.3 7.5,0.7 7.5,0.7 2.8,1.9 2.8,2 -0.5,6.5 -0.5,6.6 -1.3,1.2 -1.3,1.2 -5.6,2.2 -5.7,2.2 -4.3,-0.6 -4.4,-0.6 -2.2,-1.5 -2.3,-1.4 -6.7,0.6 -6.8,0.6 -6.5,-0.1 -6.4,-0.2 -3.3,-2.5 -3.3,-2.5 v -6.6 -6.7 l 5.6,-5.4 5.5,-5.4 1.6,0.6 1.5,0.6 z"
     id="path1175" />
  <path
     style="fill:none;stroke:#000000;stroke-width:0.1;stroke-opacity:1"
     d="m 335.7,289.3 3.2,3 1.2,5.6 1.2,5.6 1.9,2.7 1.8,2.6 v 1.5 1.6 l 1,0.6 1.1,0.7 -1.2,1.4 -1.1,1.4 h -1.1 -1 l -1.6,1.3 -1.6,1.4 -6.8,2.6 -6.7,2.7 h -2.9 -2.9 l -2.9,-2.4 -2.9,-2.4 -3.4,-6.9 -3.3,-6.8 0.1,-4.1 0.1,-4.2 2.2,-3.8 2.2,-3.9 1.4,-2.3 1.4,-2.2 8.7,0.6 8.7,0.7 z"
     id="path1173" />
  <path
     style="fill:none;stroke:#000000;stroke-width:0.1;stroke-opacity:1"
     d="m 268.8,285.2 2.5,1.3 1.1,1.7 1,1.7 -2.4,2.6 -2.3,2.5 h -2.7 -2.6 l -2.2,-1.6 -2.3,-1.6 -1,-2.5 -1,-2.6 1.8,-1.9 1.8,-2 2.8,0.6 2.9,0.6 z"
     id="path1171" />
  <path
     style="fill:none;stroke:#000000;stroke-width:0.1;stroke-opacity:1"
     d="m 297.9,278 4.5,0.5 1.6,2.8 1.5,2.7 -2,3.7 -2,3.8 -4.2,2.3 -4.2,2.3 -2.1,-1.1 -2.2,-1.2 -1.4,-3.3 -1.4,-3.4 v -5.4 -5.3 l 1.1,-1.1 1.2,-1.2 2.5,1.7 2.5,1.6 z"
     id="path1169" />
  <path
     style="fill:none;stroke:#000000;stroke-width:0.1;stroke-opacity:1"
     d="m 272.7,268.5 3.3,0.7 2,2.5 2,2.6 v 2.3 2.4 l -2.8,3.1 -2.8,3.1 -4.3,-1.3 -4.3,-1.3 -1.5,-2.3 -1.6,-2.3 0.6,-4.1 0.5,-4 1.3,-1.5 1.2,-1.4 1.6,0.4 1.6,0.5 z"
     id="path1167" />
  <path
     style="fill:none;stroke:#000000;stroke-width:0.1;stroke-opacity:1"
     d="m 146.5,272.5 5,3.2 3.5,2.1 3.5,2.1 7,3.7 7,3.6 3.8,3.6 3.7,3.6 v 1.3 1.3 l -4.7,3 -4.8,3 h -6.5 -6.5 l -2,0.3 -2,0.4 -5,0.7 -5,0.7 -2.7,0.5 -2.7,0.5 -4.1,-3.7 -4.1,-3.8 -1.9,-3.5 -1.8,-3.6 -2.4,-2.1 -2.3,-2.1 -3,-1.4 -3,-1.4 -0.3,-1.8 -0.3,-1.7 2,-2.9 2,-2.8 3.3,-1.3 3.3,-1.3 1.4,-1.1 1.3,-1 4.7,-1.6 4.6,-1.6 2,0.9 2,0.9 z"
     id="path1165" />
  <path
     style="fill:none;stroke:#000000;stroke-width:0.1;stroke-opacity:1"
     d="m 306,257.6 1.3,1.5 0.3,5.4 0.3,5.4 -2.6,2.1 -2.6,2 h -3.6 -3.6 l -3.8,-2.5 -3.7,-2.6 v -2 -1.9 l 3.3,-3.6 3.3,-3.7 4,-0.7 3.9,-0.8 1.1,-0.1 1.2,-0.1 z"
     id="path1163" />
  <path
     style="fill:none;stroke:#000000;stroke-width:0.1;stroke-opacity:1"
     d="m 331.4,252.8 3.8,2.6 1.5,2.3 1.5,2.3 -1.2,6.7 -1.2,6.8 -2,2.1 -1.9,2.1 -7.2,-0.1 -7.2,-0.2 -3,-1.4 -3,-1.5 v -8.3 -8.3 l 3,-2.8 3,-2.9 3,-1.5 3,-1.6 2,0.5 2,0.6 z"
     id="path1161" />
  <path
     style="fill:none;stroke:#000000;stroke-width:0.1;stroke-opacity:1"
     d="m 163.5,248.5 4,1.5 h 1.3 1.3 l 7.4,3.5 7.5,3.6 3.8,-1 3.7,-1.1 h 5.4 5.3 l 3.2,3.2 3.2,3.3 -0.1,7 -0.2,7 1.8,3 1.8,3 1.5,3.7 1.6,3.7 -3.1,3.6 -3.1,3.5 h -2.8 -2.8 l -4.4,-1.9 -4.3,-1.9 -10.9,-7.1 -10.9,-7.1 h -1.4 -1.4 l -4.1,-2.1 -4.1,-2.1 -7.7,-6.3 -7.6,-6.4 -1.9,-3.5 -1.9,-3.5 2.8,-3 2.9,-3 2.1,-0.4 2.1,-0.4 3,-0.1 3,-0.1 z"
     id="path1159" />
  <path
     style="fill:none;stroke:#000000;stroke-width:0.1;stroke-opacity:1"
     d="m 50.7,247.2 2.6,1.3 1.8,3.5 1.9,3.5 v 2.7 2.7 l -2.7,2.1 -2.8,2.2 -7.1,-0.5 -7.2,-0.5 -3.3,-1.7 -3.4,-1.7 -1.7,-1.6 -1.8,-1.5 v -2.3 -2.4 l 5.2,-4 5.2,-4.1 5.3,0.5 5.4,0.6 z"
     id="path1157" />
  <path
     style="fill:none;stroke:#000000;stroke-width:0.1;stroke-opacity:1"
     d="m 274.3,242 5.4,4 2.6,4.1 2.7,4.1 -1.9,2.6 -1.9,2.7 -2,1.8 -2,1.8 -4.7,-0.6 -4.6,-0.7 -2.8,-2.4 -2.8,-2.3 -1.5,-4 -1.6,-4.1 0.9,-0.6 0.9,-0.5 v -1.8 -1.9 l 1.5,-1.2 1.5,-1.3 -0.5,-0.5 -0.5,-0.5 1.1,-1.4 1.1,-1.3 h 1.9 1.8 z"
     id="path1155" />
  <path
     style="fill:none;stroke:#000000;stroke-width:0.1;stroke-opacity:1"
     d="m 132.9,241.5 6.1,4.5 v 2.3 2.3 l -2.2,4.4 -2.3,4.5 -3.4,1.7 -3.4,1.7 -1,1 -1.1,1.1 h -1.4 -1.4 l -5.7,2.4 -5.6,2.5 -3.7,0.6 -3.8,0.6 v 3.2 3.2 l -1.9,3.1 -1.9,3.1 -3.5,1.6 -3.5,1.7 h -2.7 -2.7 l -3.2,-3.3 -3.1,-3.2 -6.5,-7.8 -6.5,-7.8 -2.2,-5.7 -2.2,-5.7 v -3.1 l -0.1,-3.2 1.8,-2 1.7,-2.1 10,-0.2 10,-0.1 7.1,0.7 7.1,0.8 0.7,-1.2 0.7,-1.1 h 2.4 2.4 l 0.6,-1 0.6,-1 h 3.8 3.7 l 1,-0.9 0.9,-0.9 2.5,-0.5 2.5,-0.4 1.6,-0.2 1.7,-0.1 z"
     id="path1153" />
  <path
     style="fill:none;stroke:#000000;stroke-width:0.1;stroke-opacity:1"
     d="m 255,226.6 4,3.6 v 2.2 2.3 l -2.6,2.4 -2.6,2.4 -1.4,2.6 -1.3,2.6 0.7,0.8 0.7,0.7 v 0.6 l 0.1,0.7 0.8,4 0.7,4 3.5,6.4 3.5,6.4 -2.8,4.2 -2.8,4.3 -3.8,5 -3.8,5 -4.4,1.6 -4.5,1.5 -6.6,-1.8 -6.5,-1.9 -2.5,-2.2 -2.4,-2.3 -2,-4.2 -2,-4.1 v -4 -3.9 l 2,-3 2,-3 v -2.5 -2.5 l -3.5,-4.4 -3.5,-4.4 0.9,-1.1 0.8,-1.1 1.4,-5.3 1.3,-5.3 4.3,-4 4.3,-3.9 h 2.7 l 2.8,-0.1 5.9,-0.4 5.9,-0.5 0.5,-0.5 0.5,-0.5 h 2.9 2.8 z"
     id="path1151" />
  <path
     style="fill:none;stroke:#000000;stroke-width:0.1;stroke-opacity:1"
     d="m 310.6,221.5 1.3,3 2.5,3.4 2.6,3.5 v 2.8 2.9 l -1.4,3.2 -1.4,3.2 -3.1,3 -3.1,2.9 -2.7,0.4 -2.8,0.3 -1,0.8 -1,0.8 -4,0.8 -4,0.7 -1.2,1 -1.3,1 -1.5,-0.5 -1.5,-0.6 -2.1,-4.6 -2.2,-4.7 -2.1,-0.8 -2.2,-0.8 -1.2,-1.4 -1.1,-1.4 1.5,-2.2 1.5,-2.1 4.2,-1.3 4.2,-1.2 3.2,-1.9 3.1,-1.8 4.3,-5.5 4.2,-5.5 2.1,-1.4 2,-1.4 1.4,1.2 1.5,1.2 z"
     id="path1149" />
  <path
     style="fill:none;stroke:#000000;stroke-width:0.1;stroke-opacity:1"
     d="m 62.9,216.5 3.1,3.5 -0.5,3.7 -0.4,3.6 -1.1,3.2 -1.1,3.3 -1.7,1.5 -1.7,1.5 -2.1,0.6 -2,0.6 -4.2,-3.8 -4.2,-3.9 0.3,-3.9 0.3,-3.9 1.3,-2.5 1.3,-2.5 3.1,-3.2 3,-3.2 1.7,0.9 1.7,0.9 z"
     id="path1147" />
  <path
     style="fill:none;stroke:#000000;stroke-width:0.1;stroke-opacity:1"
     d="m 190.2,191.7 6,5.8 2,4 2,4 3.5,4.3 3.5,4.3 0.9,3.2 0.8,3.2 1.4,5 1.5,5 -1,6 -0.9,6 -1.4,2.2 -1.5,2.2 -3.7,0.7 -3.8,0.7 -7,-1.3 -7,-1.2 -4.2,-0.7 -4.1,-0.8 -2.9,-1.8 -2.8,-1.9 -2.5,-0.3 -2.5,-0.2 -4.9,-0.9 -4.9,-0.9 -4.5,1.3 -4.5,1.4 h -0.7 -0.7 l -6.8,-5.2 -6.7,-5.2 0.4,-5.1 0.4,-5 6,-8.4 5.9,-8.4 5.1,-5.3 5.2,-5.2 3,-1.6 2.9,-1.5 7.4,-2 7.4,-2 h 3.8 l 3.8,-0.1 z"
     id="path1145" />
  <path
     style="fill:none;stroke:#000000;stroke-width:0.1;stroke-opacity:1"
     d="m 232.6,189.5 4.2,2.4 4.5,5.1 4.5,5 2.2,4.5 2.1,4.4 -1.3,2.8 -1.3,2.8 -8.5,0.3 -8.5,0.3 -4.4,-0.6 -4.4,-0.7 -4.8,-4.9 -4.8,-5 -1.5,-3.2 -1.4,-3.2 -0.7,-2.4 -0.7,-2.3 3.8,-3.9 3.8,-3.9 h 1.2 1.2 l 1.1,-1.4 1.2,-1.5 4.2,1.5 4.1,1.5 z"
     id="path1143" />
  <path
     style="fill:none;stroke:#000000;stroke-width:0.1;stroke-opacity:1"
     d="m 212.8,165.2 1.2,1.2 v 2.6 2.6 l 1.6,2.2 1.5,2.2 -0.3,3.2 -0.3,3.2 -3.4,2.3 -3.3,2.3 -3.5,0.6 -3.4,0.6 -3.7,-1.8 -3.7,-1.9 -3.7,-2.8 -3.8,-2.9 v -1.2 -1.3 l 2,-1.8 1.9,-1.7 1.5,0.5 1.5,0.6 5.9,-3 5.9,-2.9 1.8,-2 1.8,-2 h 0.7 0.6 z"
     id="path1141" />
  <path
     style="fill:none;stroke:#000000;stroke-width:0.1;stroke-opacity:1"
     d="m 303.1,164.4 3.7,3.1 4.4,5.5 4.5,5.5 1.2,3.4 1.1,3.4 v 2.2 2.1 l -2.7,2.6 -2.8,2.6 -2.1,1 -2.1,1.1 -3.1,5.8 -3.1,5.8 -6.8,6.6 -6.8,6.6 -3.3,2.2 -3.2,2.3 h -4.4 -4.3 l -3.6,-1.5 -3.6,-1.5 -3,-4.3 -3.1,-4.2 -0.9,-3.3 -0.9,-3.3 -3,-3.8 -3.1,-3.8 -1.9,-5.8 -1.9,-5.9 -2.9,-1.8 -2.9,-1.8 -3.1,-3.3 -3.2,-3.4 -0.6,-2.1 -0.7,-2.2 7.1,-6.1 7.1,-6.1 h 0.7 0.7 l 9.3,2.5 9.3,2.5 h 2.9 2.9 l 2.8,-1.2 2.8,-1.2 2.1,-1.9 2.2,-1.8 4.3,-1.4 4.4,-1.3 3,1.6 3,1.5 z"
     id="path1139" />
  <path
     style="fill:none;stroke:#000000;stroke-width:0.1;stroke-opacity:1"
     d="m 60.1,153.6 3.1,1.5 1.3,3.2 1.3,3.2 0.3,3 0.2,3 -1.2,5.7 -1.2,5.7 -3.5,4.5 -3.5,4.6 h -1.7 -1.7 l -3.6,-2.3 -3.6,-2.2 -3.3,-2 -3.3,-2 -3.3,-2.9 -3.4,-2.8 v -1 -0.9 l 5.4,-6.7 5.3,-6.8 3.7,-3.2 3.7,-3.2 h 3 3 z"
     id="path1137" />
  <path
     style="fill:none;stroke:#000000;stroke-width:0.1;stroke-opacity:1"
     d="m 168.2,149.5 3.7,2.5 2.8,4.3 2.9,4.2 1.2,2.8 1.2,2.8 v 3.3 3.4 l -3.5,3 -3.5,3.1 -3.6,0.7 -3.7,0.7 -2.6,-1.5 -2.6,-1.6 -3.2,-4.7 -3.2,-4.6 -1.1,-3.7 -1,-3.6 1,-3.7 1,-3.7 3.5,-3.1 3.6,-3.1 h 1.7 1.7 z"
     id="path1135" />
  <path
     style="fill:none;stroke:#000000;stroke-width:0.1;stroke-opacity:1"
     d="m 239.8,145.3 1.1,1.3 1.2,4.4 1.2,4.5 -2.4,3.9 -2.4,3.9 -4.1,4.4 -4.1,4.3 -3.2,-1.1 -3.2,-1.1 -2.6,-3.9 -2.5,-3.8 0.6,-3.4 0.6,-3.4 3.3,-3.8 3.3,-3.8 4.4,-1.7 4.5,-1.8 1.6,-0.1 1.7,-0.1 z"
     id="path1133" />
  <path
     style="fill:none;stroke:#000000;stroke-width:0.1;stroke-opacity:1"
     d="m 101.2,143.7 7,6.8 3.8,5.7 3.8,5.7 0.6,4.6 0.7,4.5 1.8,0.9 1.8,1 7.6,-1.9 7.7,-1.9 2.9,-1.6 3,-1.5 2.4,0.9 2.4,1 2.2,2.8 2.1,2.8 3.1,3.1 3.2,3.2 -0.6,1.6 -0.6,1.6 -4.5,2.2 -4.5,2.2 -1.9,-1.7 -1.8,-1.7 -1.2,1.2 -1.2,1.2 1.1,1.2 1.1,1.3 -2.9,5.2 -2.8,5.2 -3.6,2.6 -3.7,2.6 -1.8,1.1 -1.9,1.2 1.3,2.2 1.3,2.2 -1.1,4.8 -1.1,4.7 -3.7,3.6 -3.7,3.7 -7.4,2.5 -7.4,2.6 -10.8,0.4 -10.8,0.5 -4.3,1.5 -4.3,1.5 h -2.9 -2.9 l -1.9,-1.7 -1.8,-1.6 v -1 -0.9 l 2.5,-2.9 2.4,-3 -0.5,-1.4 -0.6,-1.4 4.4,-2.7 4.3,-2.7 4,-1.3 4,-1.2 4.3,-1.7 4.3,-1.8 4,-4 4,-4.1 -0.3,-3.1 -0.3,-3 -2.5,0.3 -2.5,0.3 -3.5,3.3 -3.5,3.4 -3.4,1.7 -3.3,1.7 -5.3,0.5 -5.3,0.6 -4.3,-4 -4.2,-4 v -3.1 -3.1 l 3,-5.9 3.1,-5.9 1.2,-7.7 1.2,-7.7 0.2,-10.2 0.2,-10.2 1.1,-2 1.1,-2 2.5,-2.4 2.6,-2.3 3.3,-0.8 3.3,-0.8 3.9,-0.1 3.8,-0.1 z"
     id="path1131" />
  <path
     style="fill:none;stroke:#000000;stroke-width:0.1;stroke-opacity:1"
     d="m 284.8,129.1 4.3,3.1 1.4,2.9 1.5,2.9 -0.6,4.2 -0.6,4.3 -1.5,2.3 -1.4,2.4 -6.2,2.9 -6.2,2.9 h -6.3 -6.3 l -4.5,-1.1 -4.4,-1.1 -3,-3.5 -3,-3.4 v -1.9 -1.8 l -0.6,-1.5 -0.5,-1.5 3,-3.5 3.1,-3.5 4.3,-1 4.2,-1.1 6.5,-3 6.5,-3 3.1,-0.1 h 3 z"
     id="path1129" />
  <path
     style="fill:none;stroke:#000000;stroke-width:0.1;stroke-opacity:1"
     d="m 362.9,127.5 3.9,3.5 1.5,3.2 1.5,3.1 -3.2,4.6 -3.2,4.6 -4.1,2.3 -4,2.2 -4.4,0.6 -4.4,0.6 -3.9,-4 -3.8,-4 -0.8,-4.3 -0.8,-4.4 1.4,-2.7 1.4,-2.8 4.3,-2.1 4.2,-2.2 2.4,-0.7 2.4,-0.6 2.8,-0.2 2.9,-0.2 z"
     id="path1127" />
  <path
     style="fill:none;stroke:#000000;stroke-width:0.1;stroke-opacity:1"
     d="m 137.2,113.6 5.3,2.7 3.7,2 3.8,1.9 3.1,3.6 3.1,3.5 -0.5,3.8 -0.5,3.9 -3.1,3.9 -3.1,3.8 -3,1.3 -3.1,1.3 0.5,1.2 0.4,1.3 -0.9,4.3 -1,4.4 -2.1,2.2 -2.1,2.3 h -4.1 -4.1 l -3.2,-2 -3.2,-1.9 -2.8,-4.3 -2.7,-4.3 -2.4,-2.9 -2.3,-2.9 0.5,-1.2 0.4,-1.2 -5.5,-5.4 -5.5,-5.4 -1.4,-2.7 -1.4,-2.7 v -2.4 -2.4 l 2.5,-2.3 2.6,-2.4 7.7,-1.6 7.7,-1.5 5.8,-0.3 5.7,-0.3 z"
     id="path1125" />
  <path
     style="fill:none;stroke:#000000;stroke-width:0.1;stroke-opacity:1"
     d="m 59.3,113.5 5.6,2.4 2.4,4.8 2.5,4.8 0.6,4 0.7,4.1 -2.3,3.4 -2.3,3.4 -3.3,1.9 -3.3,1.9 -4.5,-0.7 -4.5,-0.6 -3.2,-2.9 -3.2,-2.8 -3.9,-5.6 -3.8,-5.6 -1.3,-3.7 -1.3,-3.8 0.5,-0.8 0.5,-0.9 4.7,-2 4.6,-2 4,-0.8 4,-0.8 0.6,-0.1 0.7,-0.1 z"
     id="path1123" />
  <path
     style="fill:none;stroke:#000000;stroke-width:0.1;stroke-opacity:1"
     d="m 88.9,111.4 2.6,1.4 2.4,2.5 2.3,2.6 -0.6,3.7 -0.7,3.6 -2.3,2.3 -2.3,2.3 -4.9,0.8 -4.8,0.7 -2.4,-1.4 -2.5,-1.4 -1.6,-4.1 -1.6,-4.1 -1.3,-1.6 -1.3,-1.6 4.1,-4.1 4.2,-4.2 4,0.6 4,0.7 z"
     id="path1121" />
  <path
     style="fill:none;stroke:#000000;stroke-width:0.1;stroke-opacity:1"
     d="m 191.2,101.5 8.7,2.5 11.6,-0.2 11.6,-0.3 6.2,6.6 6.2,6.6 4.3,5.2 4.2,5.3 v 1.2 1.2 l -3.7,3.6 -3.8,3.6 -3,0.5 -3,0.5 -1.5,0.6 -1.5,0.6 -5.9,0.8 -5.8,0.7 -1.8,5.8 -1.8,5.8 -2.5,3.7 -2.4,3.7 -5.9,3 -5.8,2.9 -1.8,0.3 -1.7,0.3 -2.6,-3.4 -2.5,-3.3 v -0.8 -0.8 l -2.6,-5.5 -2.6,-5.4 -6.8,-6.5 -6.9,-6.5 -3,-6.3 -3,-6.3 -0.6,-3.6 -0.7,-3.5 2,-3.3 2.1,-3.3 3.4,-3.3 3.4,-3.3 2.9,-0.9 2.9,-0.8 2.5,-0.1 2.6,-0.1 z"
     id="path1119" />
  <path
     style="fill:none;stroke:#000000;stroke-width:0.1;stroke-opacity:1"
     d="m 261.9,87.6 4.1,4.7 2,6.5 2,6.4 v 1.2 1.1 l 2,2.5 2,2.5 v 1.6 1.7 l -1.4,1.1 -1.5,1.2 -2.7,-1.7 -2.6,-1.8 -2.7,3.2 -2.6,3.1 -4.8,1.3 -4.8,1.2 -5.2,-5.8 -5.2,-5.8 -3.8,-5.7 -3.8,-5.6 0.4,-4.2 0.5,-4.3 1.7,-2.6 1.7,-2.6 4.1,-1.9 4.2,-1.9 h 6.2 6.1 z"
     id="path1117" />
  <path
     style="fill:none;stroke:#000000;stroke-width:0.1;stroke-opacity:1"
     d="m 137,82.9 4.3,1.9 2.1,-0.8 2.1,-0.7 3,1 3,1 3.8,3.5 3.7,3.6 v 2.7 2.6 l -4,4.6 -4.1,4.6 -1.9,0.6 -1.9,0.6 -4,-1.1 -4.1,-1.1 -2.5,-2.2 -2.6,-2.2 -0.6,-4.5 -0.6,-4.5 -1.7,-2 -1.8,-2 -0.3,-2.5 -0.3,-2.5 0.7,-1.3 0.8,-1.2 h 1.3 1.4 z"
     id="path1115" />
  <path
     style="fill:none;stroke:#000000;stroke-width:0.1;stroke-opacity:1"
     d="m 287,76.9 4.3,2.2 6.8,4.5 6.9,4.5 v 1.4 1.5 h 1.8 1.8 l 0.9,-0.9 1,-0.9 4.5,-0.5 4.5,-0.5 2.7,-1 2.6,-1.1 4.4,3.1 4.3,3.2 4,-0.2 4,-0.1 h 4.5 4.5 l 5.1,2.5 5.2,2.4 1.3,1.6 1.3,1.6 -0.2,4.3 -0.1,4.2 -1.1,2.9 -1.1,2.9 -2.1,2.2 -2.1,2.3 h -2.7 -2.6 l -0.9,0.9 -1,0.9 -3,0.6 -3,0.5 -3.1,0.9 -3.1,1 -10.3,0.1 -10.4,0.2 -8.8,1.5 -8.7,1.5 -2.3,-1.2 -2.3,-1.2 -3.8,-3 -3.8,-2.9 -1.8,-3.7 -1.8,-3.6 -1.1,-6.4 -1.2,-6.4 -2.1,-4.1 -2.1,-4 -4.4,-4.1 -4.4,-4.1 v -2.1 -2 l 1.8,-1.5 1.7,-1.5 1.5,-0.6 1.5,-0.6 4.1,0.3 4.2,0.3 z"
     id="path1113" />
  <path
     style="fill:none;stroke:#000000;stroke-width:0.1;stroke-opacity:1"
     d="m 110,70.9 2.5,1.2 2.2,1.3 2.3,1.3 2,1.8 2,1.8 v 1.2 1.3 l 1.5,1.2 1.5,1.2 -0.6,0.9 -0.5,0.8 1.5,2.3 1.5,2.3 0.2,4.6 0.3,4.7 -1.6,2.4 -1.6,2.4 -3.9,1.2 -3.8,1.1 -7,0.7 -7,0.6 -4.5,-1.2 -4.5,-1.2 -3.8,-3.6 -3.7,-3.6 0.6,-2.1 0.6,-2 3.5,-4.8 3.4,-4.9 -0.5,-1.4 -0.5,-1.4 1.8,-4.3 1.9,-4.4 2.8,-2 2.7,-2 3.1,0.7 3.1,0.8 z"
     id="path1111" />
  <path
     style="fill:none;stroke:#000000;stroke-width:0.1;stroke-opacity:1"
     d="m 84,69.8 2.3,1.8 0.6,4 0.7,3.9 -1.2,5.9 -1.2,5.9 -2,2.6 -1.9,2.6 -2.4,0.1 -2.4,0.1 -3,0.3 -3,0.3 -4.5,-0.7 -4.5,-0.8 -1.7,-0.9 -1.6,-0.9 -2.3,-3.6 -2.3,-3.7 -0.1,-5.4 -0.2,-5.4 4,-2.6 4,-2.5 4.6,-1.3 4.6,-1.3 5.6,-0.1 5.7,-0.1 z"
     id="path1109" />
  <path
     style="fill:none;stroke:#000000;stroke-width:0.1;stroke-opacity:1"
     d="m 209,67.6 6.5,1.5 4.5,2.9 4.5,2.9 2.9,3 2.9,3 -1.8,4.7 -1.8,4.7 -2.7,3 -2.6,3 -7,0.1 -6.9,0.1 -10.9,-2.7 -10.9,-2.7 -2.5,-2.4 -2.4,-2.5 3.2,-6.6 3.2,-6.7 3,-3.5 3,-3.4 h 4.7 4.6 z"
     id="path1107" />
  <path
     style="fill:none;stroke:#000000;stroke-width:0.1;stroke-opacity:1"
     d="m 37,66.1 4.5,1 3.6,3.6 3.7,3.5 -1.4,2.6 -1.4,2.7 v 2.6 2.6 l -1.9,1.7 -1.9,1.7 3.4,5.2 3.4,5.2 v 1.2 1.2 l -3.1,3.6 -3.1,3.5 h -1.6 -1.5 l -4.2,2.5 -4.2,2.4 -4.2,-2.1 -4.1,-2 -5.1,-4.6 -5.1,-4.6 0.5,-4.2 0.4,-4.3 2.9,-4.8 2.9,-4.8 0.1,-1.5 0.2,-1.5 2.1,-4.6 2,-4.5 1.8,-1.6 1.8,-1.5 1.5,-0.6 1.5,-0.5 1,-0.1 1,-0.1 z"
     id="path1105" />
  <path
     style="fill:none;stroke:#000000;stroke-width:0.1;stroke-opacity:1"
     d="m 173,58.6 7.5,1.5 2.3,1.5 2.2,1.4 v 2.6 2.6 l -2.6,3.2 -2.5,3.1 -2.3,3.5 -2.2,3.5 -4.1,0.9 -4.2,0.9 -4.3,-2.6 -4.3,-2.5 -3.3,-3.5 -3.4,-3.5 v -6.1 l -0.1,-6.1 1.4,-1.6 1.3,-1.6 5.5,0.7 5.6,0.6 z"
     id="path1103" />
  <path
     style="fill:none;stroke:#000000;stroke-width:0.1;stroke-opacity:1"
     d="m 318.6,49.4 1.9,1.4 v 0.9 l 0.1,0.8 1.2,2.2 1.3,2.3 -0.3,10.2 -0.3,10.3 -2.7,1.3 -2.6,1.2 -3.9,0.2 -3.8,0.2 -3.7,-2.3 -3.6,-2.2 -3.8,-5.5 -3.8,-5.5 -0.2,-4.7 -0.2,-4.8 1.8,-2.4 1.9,-2.5 5.3,-1.1 5.3,-1.2 4.1,-0.1 4,-0.1 z"
     id="path1101" />
  <path
     style="fill:none;stroke:#000000;stroke-width:0.1;stroke-opacity:1"
     d="m 249.1,46.4 3.7,4.9 -0.4,1.1 -0.4,1.2 1.3,1.8 1.3,1.8 5,0.5 4.9,0.6 2.4,1.8 2.4,1.9 h 1.7 1.8 l 1.2,1.6 1.3,1.5 -2,2 -2,2 -6.4,0.9 -6.5,0.9 -4.4,2 -4.5,1.9 -3.5,0.7 -3.5,0.6 -3.5,-1.8 -3.5,-1.8 -1,-2 -1,-2.1 -3.4,-4.2 -3.3,-4.3 0.6,-3.2 0.6,-3.2 0.6,-4.5 0.6,-4.5 1,-1.2 0.9,-1.2 2.7,-0.4 2.7,-0.4 4.5,0.1 4.4,0.1 z"
     id="path1099" />
  <path
     style="fill:none;stroke:#000000;stroke-width:0.1;stroke-opacity:1"
     d="m 114,40.1 5.5,2 3,0.9 3,0.9 5.8,1.1 5.8,1.2 4.3,4.1 4.3,4.2 -0.8,5.5 -0.8,5.5 v 1.7 l -0.1,1.7 -2.3,2.6 -2.2,2.7 -5.6,0.1 -5.6,0.2 -5.5,-4.2 -5.4,-4.1 -5,-2.4 -4.9,-2.5 -6,-0.7 -5.9,-0.7 -2.1,-1.9 -2.1,-1.9 -0.2,-1.8 -0.2,-1.8 -0.2,-2 -0.1,-2 0.2,-2.2 0.1,-2.3 4.2,-3 4.1,-3 h 4.6 l 4.6,0.1 z"
     id="path1097" />
  <path
     style="fill:none;stroke:#000000;stroke-width:0.1;stroke-opacity:1"
     d="m 75,32.6 5.1,1.8 2.9,2.6 2.8,2.5 -0.9,7 -0.9,7 -0.2,2.3 -0.2,2.3 -1.6,1.4 -1.6,1.4 -9.1,0.2 -9.2,0.1 -3,-2.1 -3,-2.2 -0.5,-1.7 -0.6,-1.8 1,-5.4 1,-5.3 v -3 -3.1 l 3.2,-3.4 3.3,-3.3 3.2,0.4 3.2,0.5 z"
     id="path1095" />
  <path
     style="fill:none;stroke:#000000;stroke-width:0.1;stroke-opacity:1"
     d="m 41.1,30 3.5,1 2.8,2.9 2.7,2.9 0.6,7.6 0.6,7.7 -2.4,2.5 -2.4,2.6 -7.9,-0.6 -7.9,-0.7 -1.9,-1 -1.9,-1 -1.9,-3.2 -2,-3.2 v -2.1 -2.1 l 5.7,-7.2 5.6,-7.1 h 1.6 1.6 z"
     id="path1093" />
  <path
     style="fill:none;stroke:#000000;stroke-width:0.1;stroke-opacity:1"
     d="m 24,24.8 2.2,1.8 -1.7,3.5 -1.7,3.4 -2.1,2.2 -2,2.3 h -1.1 -1 L 12.8,34.3 9,30.6 v -1.1 -1.2 l 2.3,-2 2.2,-2 1.5,-0.6 1.5,-0.5 2.6,-0.1 2.7,-0.1 z"
     id="path1091" />
  <path
     style="fill:none;stroke:#000000;stroke-width:0.1;stroke-opacity:1"
     d="m 318.8,25 2.2,3.3 1.1,3.9 1,4 -0.7,3.1 -0.6,3.2 -1,1.2 -1,1.3 h -13.3 -13.2 l -1.6,-1.8 -1.6,-1.7 -2,-4.5 -2,-4.5 1.9,-2 1.9,-2 6.8,-1.9 6.8,-1.9 1.4,-1.1 1.4,-1.1 3.1,-1.1 3.1,-1 2,0.6 2,0.7 z"
     id="path1089" />
  <path
     style="fill:none;stroke:#000000;stroke-width:0.1;stroke-opacity:1"
     d="m 264.6,21.8 2.9,2.8 2.1,2.4 2.2,2.5 4,2.7 3.9,2.7 2.8,5.8 2.7,5.8 -0.6,4.5 -0.6,4.5 -2.2,1.9 -2.3,1.8 -3.8,-0.5 -3.9,-0.5 -2.5,-2.4 -2.6,-2.3 -4.2,-6.5 -4.2,-6.5 -2.8,-6.2 -2.7,-6.2 0.7,-2.8 0.7,-2.8 1.5,-1.8 1.6,-1.7 h 2.2 2.3 z"
     id="path1087" />
  <path
     style="fill:none;stroke:#000000;stroke-width:0.1;stroke-opacity:1"
     d="m 291,5.5 1.2,1.5 h -0.7 -0.7 l 3.6,4 3.6,4 v 0.8 0.8 l -2.7,2.6 -2.8,2.6 -3.2,1.6 -3.2,1.6 h -1.7 -1.6 l -3.4,-3.7 -3.4,-3.7 v -1.1 -1.1 l 6.2,-5.7 6.1,-5.7 h 0.7 0.8 z"
     id="path1085" />
  <path
     style="fill:none;stroke:#000000;stroke-width:0.1;stroke-opacity:1"
     d="m 20.5,0.9 -0.5,1 1,0.6 1,0.6 v 3.8 3.9 L 20.7,11.9 19.3,13 13.4,16.1 7.5,19.2 4,19.9 0.5,20.5 0.2,26.8 -0.1,33 h 1.3 1.4 l 3.8,3.9 3.7,3.8 L 7,43.4 3.8,46 H 1.9 0 v 2.4 2.4 l 2.6,0.6 2.6,0.7 1.6,-0.5 1.7,-0.6 3.2,2 3.2,1.9 2.6,4 2.5,4.1 v 1.4 1.4 l -4.5,6 -4.4,6.1 -2.3,1.3 -2.3,1.3 H 4.1 1.7 l -1,1.6 -1,1.5 2.7,2.7 2.6,2.6 v 3 3 l -2.6,2 -2.5,2 0.3,3.8 0.3,3.8 1.8,-0.3 1.9,-0.3 2.3,1.5 2.4,1.6 10.1,9.9 10,9.8 v 1.2 1.2 l 4.3,4.7 4.4,4.7 1.6,2.5 1.7,2.4 v 2.8 2.7 l -8.6,9 -8.6,9.1 h -6.7 -6.6 l -3.4,-2.1 -3.3,-2 -0.5,-1.9 -0.5,-1.9 -1.4,0.6 -1.4,0.5 v 5.8 5.8 l 3.3,1.4 3.2,1.5 4.3,0.2 4.4,0.2 4.1,1.6 4.2,1.6 1.7,1.4 1.7,1.5 8.3,2.8 8.3,2.9 3.8,3.2 3.9,3.1 1,2.3 1,2.3 -3.3,4.9 -3.4,4.8 -3.2,6.4 -3.2,6.4 0.4,0.8 0.5,0.8 -1,0.6 -1,0.6 v 2 2.1 l -4.6,5.8 -4.6,5.8 -6.1,4.3 -6.2,4.2 -2,1.7 -2,1.7 -2.2,0.6 -2.3,0.5 -2.5,-3 -2.5,-3 -0.1,-1.1 -0.1,-1.2 0.2,-1 0.3,-1 L 4.1,233.6 4,223.8 2.9,221.9 1.9,220 H 0.9 0 l 0.2,18.7 0.3,18.8 2.1,0.1 2.2,0.1 2.8,2 2.9,2 5,1.2 5,1.2 6.5,3.2 6.5,3.2 h 12.6 12.5 l 4.2,2.7 4.1,2.8 5,6 5.1,6.1 v 1.4 1.4 l -1.1,0.6 -1,0.7 0.5,1.4 0.5,1.4 -1.4,3.2 -1.3,3.3 -3.4,3.8 -3.3,3.8 -5,-1.1 -5,-1.1 -4,-1.8 -4.1,-1.8 -3.1,-4.7 -3.1,-4.6 -1.3,1.6 -1.3,1.6 -2.5,-0.6 -2.6,-0.5 -4.8,-1.4 -4.8,-1.3 -8.1,-6 -8,-5.9 L 5.5,278.7 2.2,276 H 1.1 0 v 4.9 4.9 l 2.8,1 2.7,1 7.5,6.8 7.5,6.7 6.5,2.9 6.5,2.9 4,2 4,2 2.5,1.4 2.4,1.4 1.2,-1 1.1,-0.9 2.9,0.4 2.9,0.4 5,1.2 5,1.2 1.7,0.3 1.8,0.4 2.1,1.4 2,1.5 1.9,-0.5 1.8,-0.5 1.2,-3.1 1.1,-3.2 2,-4.1 2.1,-4.2 2.6,-2.5 2.7,-2.5 7,-0.7 7,-0.7 3.9,-1.9 4,-1.9 h 1.7 1.8 l 4,3.8 3.9,3.7 0.6,2.5 0.5,2.5 0.6,5.6 0.6,5.5 1.8,3.1 1.9,3 3.2,0.7 3.3,0.6 h 4 4 l 4.1,2.4 4.1,2.4 7,7.5 7,7.5 5.8,0.7 5.8,0.7 3.7,1.6 3.7,1.6 1.7,0.2 1.6,0.1 4.5,2.6 4.4,2.6 3.7,4.1 3.7,4.2 3.7,1.6 3.7,1.7 5.7,3.7 5.8,3.8 2.4,0.6 2.5,0.6 1.7,1.9 1.7,1.9 h 42.5 42.5 l 1.9,-1.7 1.8,-1.7 -4.2,-2.1 -4.3,-2.2 -1.9,1 -2,1 -7,0.8 -7.1,0.8 -3.8,-1.1 -3.8,-1.2 -2,-2.7 -1.9,-2.7 v -1.5 -1.5 l 7.8,-6.9 7.7,-6.9 0.3,-1.5 0.3,-1.4 2.7,-2.8 2.6,-2.7 6.3,-3.5 6.4,-3.5 h 1.9 1.9 l 0.6,1 0.6,0.9 2.7,-0.2 2.7,-0.1 2.7,0.7 2.7,0.7 2.1,-3 2.2,-3.1 4.6,-2.3 4.7,-2.4 5,-1.4 5,-1.4 5.7,0.2 5.6,0.1 3.5,0.7 3.4,0.6 1.8,2 1.8,2 1.4,-1.1 1.3,-1.1 v -6.3 -6.3 l -1.5,-1.2 -1.6,-1.3 0.6,-1.6 0.6,-1.6 -2.6,2.5 -2.6,2.5 h -6.4 -6.4 l -3.1,-3 -3.2,-3 -1.4,-2.6 -1.3,-2.7 -0.7,-3.9 -0.6,-3.8 1.9,-1.8 1.9,-1.7 8,-0.1 7.9,-0.1 2.5,1 2.6,1 1.2,1.5 1.3,1.5 -0.2,0.8 -0.1,0.9 0.1,0.9 0.1,0.8 1.5,-1.2 1.5,-1.2 v -6.3 -6.3 l -1.3,-1 -1.2,-1 -1.9,1.4 -2,1.4 -9,-0.5 -9.1,-0.5 -2.7,-0.6 -2.7,-0.5 -2.9,-3.4 -2.9,-3.3 0.9,-5.8 0.9,-5.9 1.5,-2.3 1.5,-2.3 2.5,-0.9 2.5,-1 h 5.4 5.4 l 5.7,-4 5.8,-4 1.8,0.6 1.8,0.5 v -12.3 -12.3 l -2,-1.3 -2,-1.2 v -1.5 -1.5 h -0.8 -0.9 l -1.8,2 -1.8,2 0.1,3 0.1,3 1.2,3.5 1.3,3.5 -1,2.7 -0.9,2.8 -6,2.9 -6,2.8 -6.2,0.6 -6.2,0.5 -6.3,-3.3 -6.3,-3.2 -2.3,-2.2 -2.4,-2.1 -1.9,-3.7 -1.9,-3.8 -0.4,-3 -0.3,-3.1 -0.7,-0.6 -0.6,-0.6 1.2,-1.6 1.2,-1.6 -0.9,0.8 -0.9,0.7 -4.8,-4.7 -4.8,-4.7 v -2.2 -2.1 l 2.1,-2.7 2.1,-2.6 2.9,-1.6 3,-1.5 3.7,0.1 3.7,0.1 5,-1.1 5,-1.1 7,-1.4 7,-1.4 5,-0.7 4.9,-0.7 5.1,-2.3 5,-2.4 1.8,0.6 1.7,0.5 v -5.5 -5.5 l -2.1,0.4 -2.2,0.4 -1.7,1.6 -1.8,1.6 -5.9,1.4 -5.8,1.4 -3.8,0.1 h -3.8 l -6,2.6 -6.1,2.5 -5.1,0.1 h -5.1 l -2.2,-2.5 -2.1,-2.4 0.7,-5.2 0.7,-5.3 -2.9,-3.6 -2.8,-3.7 -10.2,-9.7 -10.1,-9.7 -0.5,-5.3 -0.4,-5.3 2.2,-2.7 2.1,-2.8 5.2,-1.5 5.3,-1.5 4.9,0.4 4.9,0.5 4,2.9 4.1,3 1.2,7.2 1.2,7.3 1.5,3.2 1.5,3.1 2.1,1.9 2.1,1.9 5.7,0.4 5.7,0.3 6,-3.2 6,-3.1 2.2,-1.2 2.2,-1.1 -0.6,-2.7 -0.5,-2.7 1.6,-4.1 1.6,-4 h -0.6 -0.6 l 1.2,-1.5 1.2,-1.5 h 2.9 2.9 v -5.5 -5.6 l -2.9,-0.5 -3,-0.6 -1.7,-1.9 -1.7,-1.9 0.2,-4.6 0.1,-4.7 3.6,-4.8 3.6,-4.9 h 0.9 0.9 v -2.6 -2.6 l -2,-2.5 -2,-2.6 V 88 83.3 l 2,-1.8 2,-1.8 V 76.3 73 h -0.9 -0.9 l -2.7,5.2 -2.7,5.3 -3,3.1 -3,3.2 -4.1,-1 -4.1,-0.9 -3.1,-1.4 -3,-1.4 -4.5,-1.1 -4.4,-1.2 -3.7,-3.7 -3.6,-3.6 -1.1,-5.5 -1.1,-5.5 -1.6,-9.7 -1.7,-9.6 1.1,-2.1 1.1,-2 3.5,-1.7 3.5,-1.6 13.8,3.3 13.7,3.2 3,1.3 3,1.2 1.9,2.1 1.9,2.1 1.4,-1.1 1.3,-1.1 v -4.4 -4.3 l -1.7,-0.5 -1.8,-0.5 -8.6,-2.5 -8.5,-2.6 -8.5,-1.1 -8.4,-1 -4.2,-2 -4.1,-2 -2.6,-3.3 -2.5,-3.4 -1.1,-4.7 -1.1,-4.8 1.1,-3.2 1.1,-3.3 1.9,-1.7 2,-1.8 V 0.8 0 h -5 -5 v 1.4 1.4 l -4.6,4.1 -4.7,4.1 -3.5,1 -3.6,0.9 -2,-1.6 -2.1,-1.7 -3.7,-3.5 -3.7,-3.5 1,-1.3 1.1,-1.3 h -3.5 -3.6 l -2.5,2.5 -2.5,2.5 h -1.9 -1.9 l -5.2,4.1 -5.1,4.1 -4.9,-1.7 -4.9,-1.6 -4.7,-5 -4.6,-4.9 h -4.4 -4.4 l -0.6,1.1 -0.7,1.1 2.9,3.6 2.9,3.7 1.3,3.3 1.4,3.3 -1.8,6.5 -1.7,6.4 -2.4,1.9 -2.3,1.8 -6.1,1.3 -6.1,1.3 -3.7,-2.1 -3.7,-2 -4,-2.1 -4,-2.2 -3.2,-3.6 -3.3,-3.6 V 17 14.2 l 2.6,-5.6 2.6,-5.7 2.6,-1 2.6,-1 4.3,0.6 4.3,0.6 1.6,0.6 1.7,0.6 -0.5,-1.4 -0.5,-1.4 -6.7,-0.3 -6.8,-0.3 -1.7,1.5 -1.7,1.6 -1,-1 -0.9,-0.9 -3.3,2.5 -3.2,2.5 v 1.5 1.5 l -1.5,2.9 -1.5,3 -3.2,1.6 -3.2,1.7 -8.2,-0.6 -8.3,-0.5 -3.8,-1.8 -3.8,-1.9 -0.3,-2.9 -0.4,-2.8 2.2,-2.3 2.2,-2.3 2.4,-0.6 L 177,2 V 1 0 h -6.1 -6.1 L 161.9,2.5 159,4.9 152.5,4.6 146,4.3 143.7,2.2 141.4,0 h -13.6 -13.5 l -1.7,1.9 -1.6,1.8 3.7,0.1 h 3.8 l 7.5,2.1 7.5,2.1 3.6,2 3.7,2 h 2.8 2.9 l 5.2,2.4 5.2,2.5 3.8,2.5 3.8,2.6 h 2.2 2.2 l 0.7,1.1 0.6,1.1 3.2,-0.5 3.1,-0.5 5.5,0.9 5.5,1 4.5,1 4.5,1 5,2.4 5,2.3 6,2.7 6,2.7 2.2,2 2.1,2 -0.4,2.1 -0.3,2.2 -0.9,4.3 -1,4.3 -2.3,2.5 -2.4,2.5 -3.4,-0.6 -3.4,-0.7 -5.1,-2.6 -5.1,-2.7 -8.5,-0.2 -8.5,-0.2 -9,-1 -9,-1 -5,-1.9 -5.1,-1.9 -5.3,-3.6 -5.3,-3.7 h -2.7 -2.6 l -4.6,-1.4 -4.7,-1.4 -3.2,-1.7 -3.1,-1.6 -9.2,-1 -9.2,-1 -5.1,-1.5 -5,-1.4 -3.5,0.2 -3.4,0.2 -6,-0.8 -6,-0.8 -4.5,-2.3 -4.6,-2.3 -1.3,-1.6 -1.3,-1.6 0.7,-3.7 0.7,-3.8 0.9,-1.7 1,-1.8 3.4,-1.4 3.4,-1.4 2.3,0.5 2.3,0.6 3.9,2.8 4,2.9 h 1.6 1.7 l 2.3,-2.6 2.4,-2.5 4.6,-2 4.5,-2 2.4,0.4 2.5,0.5 1.3,-0.5 1.4,-0.5 -1.2,-1.4 -1.1,-1.4 h -2.3 -2.3 L 102,1.5 100.7,3.1 99,1.5 97.3,0 H 84.4 71.5 l -1,2.1 -1,2.2 L 65.6,5.8 61.7,7.3 60,5.2 58.2,3.1 57.6,3.7 57,4.3 v 3.4 3.4 L 55.5,14 54,16.9 51.8,18.4 49.6,20 H 46 42.4 L 37.8,17.1 33.1,14.1 31.5,11.7 29.9,9.2 29.8,4.6 29.7,0 h -4.3 -4.3 z"
     id="path4" />
</svg>
