<?xml version="1.0" encoding="UTF-8" standalone="no"?>
<svg
   version="1.0"
   width="378.000000pt"
   height="378.000000pt"
   viewBox="0 0 378.000000 378.000000"
   preserveAspectRatio="xMidYMid meet"
   id="svg8"
   sodipodi:docname="C2-Sec61b_Halo-paJF646+400uMBSA_001.czi.tif_avg17.tif_musical_NImgs=11_NFrames=10_th=4.0_alpha=6.0_gauss=1.5pxs_croped=67_usharp_r=4_mask=0.9_Simple_Segmentation_erode_disk2_close_disk2_maxReg_poly.svg"
   inkscape:version="1.1.2 (0a00cf5339, 2022-02-04)"
   xmlns:inkscape="http://www.inkscape.org/namespaces/inkscape"
   xmlns:sodipodi="http://sodipodi.sourceforge.net/DTD/sodipodi-0.dtd"
   xmlns="http://www.w3.org/2000/svg"
   xmlns:svg="http://www.w3.org/2000/svg">
  <defs
     id="defs12" />
  <sodipodi:namedview
     id="namedview10"
     pagecolor="#ffffff"
     bordercolor="#666666"
     borderopacity="1.0"
     inkscape:pageshadow="2"
     inkscape:pageopacity="0.0"
     inkscape:pagecheckerboard="0"
     inkscape:document-units="pt"
     showgrid="false"
     inkscape:zoom="1.7321429"
     inkscape:cx="252"
     inkscape:cy="252"
     inkscape:window-width="3766"
     inkscape:window-height="2096"
     inkscape:window-x="74"
     inkscape:window-y="27"
     inkscape:window-maximized="1"
     inkscape:current-layer="svg8" />
  <metadata
     id="metadata2">
Created by potrace 1.16, written by Peter Selinger 2001-2019
</metadata>
  <path
     style="fill:none;stroke:#000000;stroke-width:0.1;stroke-opacity:1"
     d="m 265.5,315 1.9,0.1 1.9,1.7 1.9,1.7 1.5,2.8 1.4,2.8 v 4.7 4.7 l -2.5,7.4 -2.6,7.5 -1.5,2.3 -1.5,2.3 h -2.8 -2.8 l -4.5,-1.5 -4.5,-1.6 -4.9,-4.9 -4.8,-4.8 -0.7,-4.9 -0.8,-4.8 1.2,-5.9 1.2,-5.9 2.9,-2.4 2.8,-2.5 7.6,0.6 7.6,0.6 z"
     id="path936" />
  <path
     style="fill:none;stroke:#000000;stroke-width:0.1;stroke-opacity:1"
     d="m 348,257 h 9.5 l 5,3.8 5,3.8 0.3,2 0.3,2 -5.1,6.6 -5,6.7 -1.7,0.9 -1.7,1 -2.1,3.8 -2.2,3.9 -2.7,1.4 -2.8,1.3 -3.7,0.1 -3.6,0.1 -7,-1.2 -7,-1.2 -3.5,-1.3 -3.5,-1.3 -3.3,-1.7 -3.3,-1.8 -0.9,-2.5 -1,-2.5 0.6,-2.5 0.7,-2.5 7.1,-7.4 7.1,-7.3 5.5,-2.6 5.5,-2.6 2,0.5 2,0.5 z"
     id="path934" />
  <path
     style="fill:none;stroke:#000000;stroke-width:0.1;stroke-opacity:1"
     d="m 49.2,225.6 1.8,1.7 v 1.8 1.8 l -1,0.6 -1,0.6 v 1.5 1.5 l 0.9,-0.5 0.9,-0.6 1.2,1.5 1.2,1.5 h -0.7 -0.8 l 0.5,0.5 0.5,0.5 3.4,-1.4 3.4,-1.4 2.4,-2.6 2.4,-2.6 h 1.6 1.5 l 8.2,3.5 8.2,3.5 4.4,0.4 4.3,0.3 4.4,2.2 4.5,2.1 h 2 2.1 l 4.8,3.6 4.8,3.5 0.6,1.5 0.5,1.5 -1.7,4.4 -1.7,4.5 -4.5,3.9 -4.5,4 -4.2,1.6 -4.3,1.7 -0.1,3.2 -0.1,3.3 -1.1,4.9 -1.1,4.9 -3,5.2 -2.9,5.3 v 1.3 1.4 l -1.9,1.7 -1.9,1.7 -8.6,-0.9 -8.5,-1 -4.8,-2.7 -4.8,-2.8 -7.1,-6.7 -7.1,-6.7 -4.8,-0.6 -4.8,-0.7 H 30 27.3 l -2.2,-2.3 -2.2,-2.4 -0.6,-5.2 -0.6,-5.2 -0.8,-0.5 -0.9,-0.5 v -3.7 -3.8 l 1.6,-2.2 1.6,-2.3 2.7,-1.2 2.6,-1.1 h 1 l 1,-0.1 5.9,-2 5.9,-2 1.5,-2.4 1.6,-2.3 -3.4,0.7 -3.5,0.7 -1,0.8 -1,0.8 -5.9,1.1 -6,1.1 h -2.2 -2.3 l -2.6,-2.3 -2.6,-2.2 -0.2,-3.5 -0.1,-3.5 1.6,-3.1 1.7,-3 1.5,-1.3 1.5,-1.3 3.8,-0.3 3.8,-0.3 2.5,-1 2.5,-1 2.5,-0.9 2.5,-1 4.4,-0.2 4.4,-0.1 z"
     id="path932" />
  <path
     style="fill:none;stroke:#000000;stroke-width:0.1;stroke-opacity:1"
     d="m 177.8,213.4 3.7,2.4 3.8,3.9 3.7,3.9 -1.4,4.2 -1.5,4.2 h 1.2 1.2 l 1.5,-1 1.4,-0.9 -0.7,-0.7 -0.7,-0.7 1.1,-1.4 1.1,-1.3 h 1.9 1.9 l 6.8,3.4 6.7,3.3 9,2.1 9,2.1 7.5,1.4 7.5,1.4 9.5,2.8 9.5,2.8 4.1,4.3 4.1,4.2 2.4,0.7 2.4,0.8 3.7,2.9 3.7,2.9 4.6,8.5 4.7,8.5 -0.7,2.7 -0.6,2.7 -6.8,6.6 -6.8,6.7 -2.1,5 -2.2,5.1 v 1.4 1.5 l -1.6,1.3 -1.6,1.3 -11.1,0.3 -11.1,0.2 -2.5,1.9 -2.5,1.8 -0.9,3 -1,2.9 -1.8,2 -1.9,2.1 -0.6,3.2 -0.6,3.1 1.7,7.1 1.7,7 -1,1.3 -1.1,1.3 0.5,2.1 0.6,2.1 -2.6,1.7 -2.5,1.7 -3.3,-2 -3.3,-2.1 -2.6,-2.8 -2.5,-2.8 -2.6,-4 -2.7,-4 -1.9,-5 -2,-5 -2.1,-4.5 -2.2,-4.5 -1.9,-3.5 -1.8,-3.5 0.4,-10.2 0.4,-10.1 -3.1,-8.6 -3,-8.6 0.5,-0.8 0.5,-0.9 -4.9,-4.8 -5,-4.9 -1.5,-5.2 -1.5,-5.2 v -3.1 -3 l -1.2,-2.6 -1.2,-2.6 -9.1,0.7 -9.1,0.6 -5.7,-1.6 -5.6,-1.6 -1.6,-2.2 -1.5,-2.2 v -6 -5.9 l 1.7,-1.9 1.6,-1.8 h 1.3 1.2 l 0.4,-1 0.3,-1.1 5,-3.9 5,-3.9 h 3.3 L 174,211 Z"
     id="path930" />
  <path
     style="fill:none;stroke:#000000;stroke-width:0.1;stroke-opacity:1"
     d="m 155.2,200.1 1.7,0.9 h 1.9 1.9 l 1.8,2 1.9,2.1 -1,2.7 -0.9,2.6 -5.4,3.8 -5.4,3.8 h -1.6 -1.6 l -3.7,-3 -3.7,-3.1 0.4,-5.5 0.4,-5.6 1.2,-1.4 1.2,-1.5 4.6,0.7 4.6,0.7 z"
     id="path928" />
  <path
     style="fill:none;stroke:#000000;stroke-width:0.1;stroke-opacity:1"
     d="m 134.5,196.4 2.5,1.6 v 6.5 6.4 l -1,0.6 -1,0.6 v 2 2 l 1,-0.6 1,-0.6 5,4.7 5,4.7 -0.3,5.8 -0.4,5.9 -1.8,2 -1.8,2 -5.4,2 -5.4,2 h -3.3 -3.3 l -4.3,-1.5 -4.3,-1.5 h -2.7 -2.8 l -3.8,-1.6 -3.8,-1.6 -3.3,-2.7 -3.3,-2.7 -4.8,-0.3 -4.7,-0.2 -4,-1 -4,-1 -2.5,-0.5 -2.5,-0.6 -2,-0.8 -2,-0.8 -1.6,-0.5 -1.7,-0.5 -1,1 -1.1,1.1 -1.5,-1.3 -1.6,-1.2 0.7,-1.2 0.7,-1.1 -0.2,-2.6 -0.3,-2.6 6.8,-6 6.8,-5.9 3.2,-2.3 3.2,-2.2 8.4,-1.3 8.4,-1.4 5.9,-1.7 5.9,-1.8 2.5,-0.8 2.5,-0.9 7.8,0.4 7.8,0.4 z"
     id="path926" />
  <path
     style="fill:none;stroke:#000000;stroke-width:0.1;stroke-opacity:1"
     d="m 347.8,187.4 4.2,4 v 1.4 1.4 l -3.7,3.4 -3.7,3.4 h -12.9 -13 l -3.9,-4.2 -3.8,-4.1 v -1.2 -1.1 l 2.8,-2.6 2.7,-2.5 3.3,-1.3 3.4,-1.3 8.6,-0.6 8.7,-0.7 1.5,1 1.5,1 z"
     id="path924" />
  <path
     style="fill:none;stroke:#000000;stroke-width:0.1;stroke-opacity:1"
     d="m 171.4,152.5 3.4,1.4 3.1,2.7 3.1,2.6 v 3.8 3.9 l -1.1,5.3 -1.1,5.3 -0.9,1 -0.9,0.9 v 4.3 4.4 l -3.3,5.2 -3.4,5.2 -1.4,1.1 -1.4,1 -1,-0.1 -1,-0.2 -3.7,-1.6 -3.7,-1.7 h -1.5 -1.5 l -0.6,-1 -0.6,-1 h -3.8 -3.8 l -2.3,-2.4 -2.3,-2.5 0.6,-1.6 0.7,-1.5 1.6,-9.8 1.6,-9.7 0.3,-2.3 0.2,-2.4 5.4,-5.5 5.4,-5.5 2,-0.9 2,-0.8 3.2,0.5 3.3,0.5 z"
     id="path922" />
  <path
     style="fill:none;stroke:#000000;stroke-width:0.1;stroke-opacity:1"
     d="m 211.4,139.9 0.6,0.9 4.5,2.1 4.6,2.1 1.1,2.5 1.1,2.5 h 2.1 l 2.1,-0.1 1.7,-1.3 1.7,-1.3 6.3,-0.2 6.3,-0.2 0.3,-0.4 0.4,-0.4 4.9,3.3 4.9,3.3 16.3,15.5 16.4,15.5 5.4,1.8 5.4,1.8 5.1,3.8 5,3.9 2.3,4.5 2.3,4.6 1.4,-1.2 1.3,-1.1 5.3,1.2 5.3,1.2 3,1.3 3,1.3 3.3,1.2 3.2,1.3 3.9,4.6 3.8,4.6 4.4,7.5 4.3,7.5 1.6,4.5 1.6,4.5 -0.6,2.4 -0.5,2.4 -2.8,2 -2.7,2.1 -9.9,0.1 -9.9,0.2 -4.6,3.1 -4.6,3.2 -4.4,3 -4.4,3 h -1.1 -1 l -4.7,2.6 -4.7,2.6 -4,-0.5 -3.9,-0.5 -9.7,-9.9 -9.6,-9.8 -1.3,-2.8 -1.2,-2.8 1.5,-2.9 1.5,-2.8 3,-2.4 2.9,-2.3 -2.5,-5.3 -2.5,-5.3 -0.9,0.3 -1,0.3 -3.2,5.4 -3.3,5.4 -2.6,2 -2.7,1.9 -3.8,0.1 h -3.9 l -8.5,-1.6 -8.5,-1.6 -2.9,-1 -2.8,-1.1 -7.6,-1.6 -7.7,-1.6 -4.5,-2 -4.5,-2 -1.5,-0.4 -1.5,-0.3 -3.9,-1 -3.8,-0.9 -3.9,-4 -3.8,-4 -2.3,-0.7 -2.3,-0.8 -4.7,-3.4 -4.8,-3.5 v -1.1 -1.2 l 4.5,-5.8 4.5,-5.7 4.3,0.6 4.2,0.5 2.3,0.5 2.2,0.4 v -1.2 -1.3 l -4.8,-2.7 -4.8,-2.7 -1.6,-1.8 -1.6,-1.8 -0.6,-3.7 -0.6,-3.7 0.9,-0.5 0.9,-0.6 v -2.5 -2.6 l 2.5,-2.7 2.5,-2.7 0.3,-2 0.2,-2 -0.8,-1.8 -0.7,-1.7 0.8,-1.8 0.7,-1.7 0.1,-0.5 0.1,-0.5 2.3,-3.2 2.3,-3.2 1.3,0.5 1.4,0.5 4.7,-3.5 4.7,-3.6 h 1.8 1.9 z"
     id="path920" />
  <path
     style="fill:none;stroke:#000000;stroke-width:0.1;stroke-opacity:1"
     d="m 274.4,113 8.8,0.9 6.3,6.1 6.3,6 h 1.5 1.4 l 6.6,3.5 6.6,3.5 h 3.5 3.5 l 5.4,2 5.3,2 2.8,2.9 2.7,2.8 1.4,4.9 1.4,4.9 1.5,4 1.5,4 0.1,6.6 v 6.7 l -1.7,2 -1.8,2 -9.5,1.2 -9.5,1.3 -3.5,0.2 -3.5,0.3 -5.4,0.6 -5.4,0.6 -1.1,-0.9 -1.1,-0.8 -5.1,-1.7 -5.2,-1.7 -3.7,-2.7 -3.8,-2.7 -3.9,-4 -3.8,-4 -1.5,-3.1 -1.5,-3.2 -6.7,-5.5 -6.8,-5.5 -3.3,-3.5 -3.4,-3.5 1.3,-5.8 1.2,-5.9 1.3,-2.6 1.3,-2.6 4.1,-5.1 4,-5.2 h 1.3 1.2 z"
     id="path918" />
  <path
     style="fill:none;stroke:#000000;stroke-width:0.1;stroke-opacity:1"
     d="m 101.6,90.4 9.1,3.6 h 3.8 3.7 l 2.5,2 2.6,2 h 1.7 1.7 l 1.8,2 1.8,2 h 1.3 1.2 l 5.1,5.6 5.1,5.6 v 1 1 l 5,5.5 5,5.4 0.9,3.7 1,3.7 0.7,5.3 0.7,5.3 -4,4.2 -4,4.2 -3.3,5.9 -3.3,5.9 -0.3,7 -0.4,7.1 -1.5,5.2 -1.5,5.3 -1.3,0.8 -1.2,0.8 H 130 l -5.5,0.1 -9.5,0.3 -9.5,0.3 -2.2,1.4 -2.2,1.4 -6.9,1 -6.9,1 -1.5,0.5 -1.6,0.6 -2.8,-4 -2.9,-4 -6.6,-3.1 -6.6,-3 -1.6,-1.8 -1.6,-1.7 -0.2,-12 -0.3,-12 0.7,-6.9 0.7,-7 1,-3.7 1,-3.7 -0.2,-8 -0.2,-8 1.5,-2.3 1.6,-2.4 1.8,-7 1.8,-7 -1.1,-4.5 -1.1,-4.5 -0.6,-2.2 -0.7,-2.1 2.6,-1.7 2.6,-1.7 3.8,-1.3 3.7,-1.4 6,3.4 6,3.3 z"
     id="path916" />
  <path
     style="fill:none;stroke:#000000;stroke-width:0.1;stroke-opacity:1"
     d="m 70.4,65.4 3.9,2.1 2.3,4.2 2.3,4.2 -1.4,1.1 -1.4,1.2 -3.3,0.4 -3.3,0.5 -1.3,0.4 -1.2,0.4 -2.3,-0.8 -2.3,-0.9 -2.7,-3.9 -2.7,-4 1.4,-3.4 1.4,-3.4 0.8,-0.7 0.7,-0.8 2.6,0.6 2.6,0.6 z"
     id="path914" />
  <path
     style="fill:none;stroke:#000000;stroke-width:0.1;stroke-opacity:1"
     d="m 286.5,39.1 6.9,2.1 3.8,4.2 3.8,4.1 0.6,3 0.5,3 -2,4.8 -2,4.7 -3.1,1.9 -3.1,1.9 3.1,2.2 3,2.2 1.5,3.5 1.5,3.5 v 2.2 2.1 l -4.7,9.3 -4.7,9.3 -3.4,3 -3.4,3 -1.5,-0.5 -1.5,-0.6 -7.1,-0.6 -7.2,-0.7 -2.3,-0.8 -2.2,-0.9 -2.4,-5.4 -2.5,-5.5 -1.5,-8.3 -1.5,-8.3 -1.1,-6.5 -1.1,-6.5 0.5,-8.9 0.4,-8.8 3.3,-3.4 3.3,-3.4 3.6,-2 3.5,-1.9 6,0.4 6,0.4 z"
     id="path912" />
  <path
     style="fill:none;stroke:#000000;stroke-width:0.1;stroke-opacity:1"
     d="m 152.5,36.9 0.5,0.9 5.3,1.7 5.2,1.7 2.7,2.5 2.6,2.5 0.7,2.6 0.6,2.6 2.1,4.6 2.1,4.5 3.1,5 3.2,5 3.3,7 3.4,7 2.4,2.9 2.4,2.9 3.9,7.7 3.9,7.7 2.5,7.9 2.4,7.9 0.5,5.3 0.4,5.4 -2.5,2.9 -2.4,3 -0.5,-0.4 -0.4,-0.4 -4.2,3.8 -4.2,3.9 h -1.4 -1.4 l -3.4,2.1 -3.4,2.1 -8.2,-1.6 -8.2,-1.7 -2.2,-1.5 -2.3,-1.4 -0.1,-1.8 -0.1,-1.7 -0.5,-3 -0.4,-3 -0.2,-8.9 -0.2,-9 -3.4,-0.9 -3.4,-0.8 -6.2,-5.5 -6.2,-5.5 -1,-3.2 -0.9,-3.2 -1.2,-0.1 -1.2,-0.2 -1.5,-0.1 -1.6,-0.1 -4.8,-4.5 -4.7,-4.4 0.3,-9.8 0.4,-9.8 0.4,-4.8 0.3,-4.7 0.1,-5.4 0.1,-5.5 2.3,-2.7 2.4,-2.7 7.4,-2.7 7.4,-2.8 3.7,-0.1 3.7,-0.1 z"
     id="path910" />
  <path
     style="fill:none;stroke:#000000;stroke-width:0.1;stroke-opacity:1"
     d="m 75.8,24 3.2,2 h 1.3 1.3 l 3.4,1.8 3.5,1.9 9,4.8 9,4.8 1,0.7 1,0.7 3.7,1.2 3.8,1.2 1.9,2.4 1.8,2.4 0.8,6.3 0.7,6.3 -0.2,6 -0.2,6 -0.7,1 -0.7,1 -1.2,4.1 -1.2,4.1 -1.9,1.7 -2,1.8 H 108 l -5.2,-0.1 -1.2,-1 -1.2,-1 -2,0.1 -2.1,0.2 -4.9,-3.2 -5,-3.1 -2,-2.8 -2.1,-2.8 -1.6,-3.2 -1.7,-3.2 v -2.4 -2.5 l -3.7,-0.5 -3.8,-0.4 -6,-1.7 -6,-1.7 L 56.3,53.8 53,50.6 V 49 47.4 l -1.1,-1.1 -1.2,-1.2 5,-5.5 5,-5.5 0.6,-3.1 0.7,-3.1 2.9,-3 2.9,-2.9 h 2.4 2.3 z"
     id="path908" />
  <path
     style="fill:none;stroke:#000000;stroke-width:0.1;stroke-opacity:1"
     d="m 194.5,22.2 5,2.9 6.1,3.7 6,3.7 3.5,2.7 3.6,2.8 2.9,0.1 2.9,0.2 10,2.4 10,2.5 2.2,2.2 2.2,2.1 0.6,16.5 0.5,16.5 0.6,4 0.6,4 1.4,5.1 1.5,5.1 0.4,2.2 0.4,2.3 0.6,1.9 0.6,1.9 -1.7,4.8 -1.7,4.7 -2.5,4.2 -2.4,4.3 h 0.6 0.6 l -2,3.7 -2,3.8 v 1.1 1.1 l -2.1,2.7 -2.2,2.7 -2.5,1 -2.4,0.9 -4.7,0.1 -4.6,0.1 -4,-2.2 -4,-2.2 -3.7,-3.6 -3.8,-3.6 -1.9,-6 -2,-6.1 -0.6,-3.3 -0.7,-3.2 -3.5,-8.8 -3.5,-8.7 -2.3,-3.1 -2.4,-3.1 -5.2,-10.9 -5.2,-10.9 -2.7,-4 -2.7,-4 -2.1,-4.2 -2.2,-4.1 -0.9,-4.3 -1,-4.2 2.5,-3.2 2.5,-3.3 1.9,-6.8 1.9,-6.9 2.2,-1.8 2.2,-1.7 2.1,0.6 2.1,0.6 z"
     id="path906" />
  <path
     style="fill:none;stroke:#000000;stroke-width:0.1;stroke-opacity:1"
     d="m 58.3,1.1 -1.2,1.2 1.5,2.2 1.5,2.2 1.8,5.3 1.9,5.3 -1,3.1 -1.1,3.1 -2.2,2.5 -2.2,2.5 -2.2,3.7 -2.1,3.6 -4,3.5 -3.9,3.6 -13.8,-0.5 -13.8,-0.5 -8,3 -8,2.9 v 1.3 1.4 l 1.5,-0.4 1.5,-0.4 4,-1.2 4,-1.3 8.6,-1.1 8.5,-1.1 h 5.7 5.8 l 3.2,1.3 3.2,1.4 3,4.4 2.9,4.4 2,2.3 2,2.2 -1.2,1.2 -1.2,1.2 v 5.2 5.2 L 53.5,75 52,76.2 v 1.4 1.4 h 0.9 0.9 l 3,2.5 2.9,2.5 3.6,7.2 3.6,7.3 -0.6,3 -0.6,3 -2.2,3 -2.1,3 -1.8,4 -1.7,4 1.6,3.7 1.5,3.7 v 9.4 9.5 l -2.4,6.3 -2.4,6.4 0.9,8.6 0.8,8.5 1.5,3.5 1.5,3.6 -1.1,1.1 -1,1 -3,-0.9 -3.1,-0.8 -0.8,0.4 -0.8,0.5 -0.5,-0.8 -0.5,-0.9 -3.9,-0.1 -3.9,-0.2 -6.4,-1.4 -6.4,-1.5 -5.2,-1.5 -5.2,-1.5 -6.8,1.5 -6.8,1.5 -2.7,0.6 -2.8,0.5 v 1.9 1.8 l 0.9,0.5 0.8,0.5 0.7,-0.6 0.7,-0.7 1.2,-0.2 1.3,-0.2 5.5,-1.7 5.6,-1.8 14.4,3.3 14.4,3.3 4,0.1 4,0.1 4.2,-0.8 4.2,-0.7 3.3,2.9 3.3,2.8 2.2,0.7 2.2,0.7 2.6,3 2.5,3.1 v 0.8 0.8 l -6.2,4.6 -6.3,4.5 -3.8,3.2 -3.9,3.3 -1.5,0.2 -1.4,0.2 -2.4,1.6 -2.4,1.6 -1.6,-0.6 -1.6,-0.7 -2.2,2.1 -2.2,2 -5,1 -5,1.1 -8.5,1.7 -8.5,1.6 -2.3,4.6 -2.4,4.5 -2.4,3.9 -2.5,3.9 -2.7,-0.3 -2.7,-0.3 -0.3,2.5 -0.3,2.5 3.2,0.2 3.1,0.2 3.5,2.7 3.4,2.6 1,2.5 0.9,2.4 v 3.3 3.4 l 1.6,3.7 1.5,3.7 0.5,3.5 0.4,3.4 1,1.9 1,1.9 v 1.5 1.6 l -3.9,5.8 -3.9,5.7 -2.6,2.4 -2.5,2.4 -1.4,-1.2 -1.4,-1.1 -0.6,4.1 -0.5,4.2 1,1.7 1.1,1.7 -2.1,6.4 -2.1,6.4 0.4,0.3 0.4,0.4 3.2,-6.3 3.1,-6.4 1.1,-1.4 1.1,-1.3 0.2,-1.6 0.3,-1.6 1.2,-2.6 1.3,-2.5 6.5,-6.8 6.5,-6.7 H 33 l 5.5,0.1 2.3,1.2 2.3,1.3 5.5,6.3 5.4,6.3 -2.1,2.9 -2,2.9 H 49 48.1 l -1.5,2.8 -1.4,2.8 -0.7,3.5 -0.7,3.5 2.2,3.6 2.1,3.6 1.6,0.6 1.6,0.6 -1.3,-1.4 -1.2,-1.5 -0.8,-3.8 -0.9,-3.7 1.4,-2.5 1.3,-2.6 0.6,-1.7 0.5,-1.6 3.5,-1.7 3.5,-1.7 5.8,2.2 5.8,2.2 3.7,-1.3 3.6,-1.2 5,0.5 5,0.5 3.7,3 3.6,3 4.1,5.4 4,5.4 4.4,4.7 4.4,4.7 v 1.1 1 l 6,5.9 6.1,5.8 -0.5,2.6 -0.5,2.6 2.8,3 2.8,3 2.4,-0.5 2.4,-0.6 2.3,-1.1 2.4,-1.1 1.4,-2.8 1.4,-2.7 v -1.5 -1.5 l -2.4,-2.8 -2.4,-2.7 -2.5,1.1 -2.6,1.2 -0.6,-1 -0.6,-0.9 -1,0.6 -1,0.6 -1.4,-1.2 -1.5,-1.2 0.7,-1.1 0.6,-1 -1,0.6 -1.1,0.7 -3.7,-4.3 -3.8,-4.2 -2.6,-1.6 -2.6,-1.6 -1.1,-2.2 -1.2,-2.3 -7.8,-9 -7.9,-9.1 -1.1,-2 -1.1,-2 0.7,-3.3 0.7,-3.2 1.9,-3.6 1.9,-3.6 4.7,-6.7 4.6,-6.8 4.4,-4.1 4.3,-4.2 3.5,-5.7 3.5,-5.7 2,-3.1 2,-3.2 3.8,-1.8 3.7,-1.9 6.8,-0.6 6.7,-0.7 6,0.8 6,0.8 5,0.9 5,0.8 2.2,0.5 2.1,0.5 2.9,1.6 2.9,1.5 1.4,1.7 1.4,1.6 1.3,3.7 1.3,3.6 v 2.2 2.2 l -1,0.6 -1,0.6 v 1.8 1.8 l -2.5,3.6 -2.4,3.6 0.8,0.6 0.8,0.5 0.5,5.5 0.5,5.6 3.6,7 3.7,7 v 1.1 1.2 l 2.6,3.8 2.7,3.8 -1.7,1.8 -1.6,1.9 v 0.7 0.6 l 2.5,-1.6 2.5,-1.6 v -1.7 -1.7 l -3,-3.4 -2.9,-3.5 -0.1,-1.5 v -1.5 l -2,-4.4 -2,-4.3 -1,-6.5 -1.1,-6.4 0.8,-1.2 0.8,-1.2 v -0.9 -0.9 l 2.6,-1.9 2.7,-2 3.7,1.7 3.6,1.8 1.5,2.2 1.5,2.2 1.1,5.9 1.2,5.9 v 8 l 0.1,8 0.7,1 0.6,1 0.7,5.5 0.7,5.5 1.4,2.8 1.5,2.7 0.9,5.2 1,5.1 2.6,5.3 2.5,5.2 4.5,6.3 4.4,6.3 v 1.8 1.9 l 1.8,0.5 1.7,0.5 3.8,1.9 3.7,1.8 v -1.8 -1.8 l 2.9,-2.5 3,-2.5 5,-1.2 5,-1.2 7.3,1.2 7.3,1.1 5.5,3.6 5.5,3.6 2.1,1.9 2.1,1.9 2.4,-0.3 2.4,-0.4 1.8,-1 1.9,-1.1 -2.9,-1.8 -2.8,-1.9 -5.3,-5.1 -5.2,-5.2 0.6,-3.4 0.7,-3.4 0.8,-1.1 0.8,-1 1.5,-6 1.4,-5.9 1.2,-3 1.1,-3 1.6,-1.7 1.6,-1.8 0.8,0.6 0.9,0.5 v -1.9 -2 l -2.5,-1.6 -2.4,-1.6 -1.2,-2.2 -1.2,-2.1 0.1,-5.6 0.1,-5.6 4.3,-3.8 4.3,-3.9 3,-1.5 3,-1.6 5.8,-4.3 5.9,-4.4 h 0.7 0.8 l 7.9,5.2 7.9,5.3 5,2.7 5,2.7 6.7,1.1 6.8,1.2 6.7,3.3 6.8,3.3 2.6,2.8 2.6,2.9 0.1,2.4 0.1,2.4 -1.5,2.9 -1.5,2.9 -0.3,6.3 -0.4,6.4 -0.6,1.1 -0.7,1.1 -0.4,2 -0.4,2.1 -2,2.6 -2.1,2.6 v 4.2 4.1 l -3.9,7.5 -3.8,7.4 2.3,1.8 2.3,1.7 h 1.4 1.4 l 1.6,-1.8 1.7,-1.9 v -1.6 -1.6 l 1,-0.6 1,-0.6 1.9,-4.3 2,-4.2 -0.1,-10.5 -0.1,-10.4 1.6,-4.5 1.5,-4.5 0.6,-3 0.7,-3.1 1.9,-3.2 1.9,-3.1 4.1,-2.1 4.1,-2.1 -0.3,-3.7 -0.3,-3.7 h -5 -5 l -4.8,-4 -4.8,-4 -1.5,-2.3 -1.6,-2.4 4.1,-6 4.1,-6.1 v -1.5 -1.4 l 2.8,-3.3 2.7,-3.3 1.7,-2.5 1.7,-2.4 3,-0.6 3.1,-0.7 v -4.1 -4.1 l -2.2,-1.9 -2.3,-1.8 -1.1,-0.1 h -1.2 l -3.6,-4 -3.6,-4 -0.1,-1.3 -0.1,-1.2 -0.3,-3.9 -0.3,-3.8 -2.5,-2.7 -2.5,-2.6 -3.9,-6.5 -3.9,-6.5 -2.2,-5.3 -2.3,-5.2 0.4,-2.5 0.3,-2.4 1.8,-2 1.9,-2.1 h -0.8 -0.7 l 1.1,-1.3 1.1,-1.4 6.2,0.9 6.3,0.9 6,-1.2 6,-1.2 1.3,-1 1.3,-1 -0.3,-2.1 -0.3,-2.1 -9.6,-1.1 -9.6,-1.1 -4.5,-3.1 -4.5,-3.1 -1.6,-2.4 -1.5,-2.3 -0.6,-5.2 -0.5,-5.2 -1,-3.8 -1,-3.7 -0.6,-4.5 -0.6,-4.5 -1.2,-6.5 -1.3,-6.5 3,-4 3,-4 4.1,-4.3 4,-4.3 6.6,-5 6.6,-4.9 h 1 1 l 2.7,-2.1 2.6,-2 v 0.7 0.7 l 2,-1.8 2,-1.8 v -3.2 -3.3 l -1.4,-0.5 -1.4,-0.6 -1.9,2.1 -1.8,2.1 -4.3,1.8 -4.4,1.9 h -2.6 -2.7 l -2.5,4.2 -2.5,4.2 -1.6,2.7 -1.6,2.7 -1.6,2.5 -1.6,2.5 -6.2,4.7 -6.2,4.7 -5.2,-0.4 -5.2,-0.4 -4.5,-3 -4.5,-3 -4.4,-1.4 -4.4,-1.5 -5.9,-5.7 -5.9,-5.7 0.6,-4 0.5,-4 3.3,-4.3 3.4,-4.2 4.7,-4.8 4.8,-4.8 h -0.6 -0.6 l 1.2,-1.5 1.2,-1.4 -2.1,-2.9 -2.1,-2.9 -0.9,-2.5 -0.9,-2.5 -0.8,-12.4 -0.7,-12.4 0.1,-2.5 0.2,-2.4 2.7,-2.8 2.8,-2.9 4.6,-2.9 4.6,-3 h 2.8 2.8 l 5.6,4.2 5.5,4.3 9.6,9 9.6,9 10,5.1 9.9,5.1 1.3,-0.4 1.2,-0.5 V 62.4 59 h -2.8 -2.8 l -5,-3.1 -4.9,-3.1 -6.5,-6.2 -6.5,-6.1 -4.8,-3.5 -4.8,-3.5 -5.3,-4.3 -5.4,-4.2 -1.2,-4.6 -1.3,-4.5 1.1,-5.2 1.1,-5.2 0.4,-2.8 0.4,-2.7 h -3.1 -3.1 l -1.9,3.4 -1.9,3.5 0.6,2.8 0.6,2.8 -1.1,4.2 -1,4.3 -3.9,4.4 -4,4.5 -3.6,2.2 -3.6,2.2 -7.6,0.1 -7.6,0.1 -5.5,-1.9 -5.5,-1.8 -3.6,-2.4 -3.6,-2.5 -2.4,1 -2.5,0.9 -1.4,1.7 -1.4,1.7 -4.9,2.6 -5,2.7 -2.1,1.2 -2.1,1.3 h -2.3 -2.3 l -6.7,-2.1 -6.7,-2.2 -1.6,-1.3 -1.6,-1.4 -2.4,0.2 -2.4,0.2 -5.3,-1.9 -5.2,-1.9 -9,-8.4 -9,-8.3 1.9,-3.7 1.8,-3.7 0.7,-2.3 0.7,-2.2 h -1.5 -1.5 l -1.6,3.5 -1.7,3.4 -1.1,0.9 -1.2,0.9 -3.2,1.2 -3.1,1.3 -4.7,-2.9 -4.6,-2.8 -2.5,-1.3 -2.4,-1.3 -1.1,0.7 -1.1,0.6 3,3.2 3,3.1 1.6,3.3 1.7,3.3 0.1,3.7 0.2,3.7 -2.7,4.1 -2.6,4.2 0.5,0.4 0.4,0.5 -2.4,2.2 -2.5,2.3 -7.6,-2.6 -7.6,-2.6 -2,-0.3 -1.9,-0.3 -1.1,-1.1 -1,-1 -0.4,-5.9 -0.3,-5.9 -1,-7.3 -1,-7.2 -1.1,-1.4 -1.1,-1.3 0.7,-0.6 0.6,-0.7 h -1.9 -1.9 l -1.4,3.1 -1.3,3 1.6,1.8 1.7,1.8 0.9,5.9 1,5.9 0.9,3.2 0.9,3.3 -1.6,1.9 -1.7,1.9 -7.8,1.7 -7.9,1.7 -0.5,-0.6 -0.6,-0.6 -1.4,1.2 -1.4,1.1 -7.2,-0.6 -7.3,-0.6 -3.7,-1.6 L 99,32 91.7,27.1 84.4,22.1 83,20.5 81.7,18.9 76.8,16.8 71.9,14.7 68,10.3 64.1,5.9 63.8,3.2 63.5,0.5 l -2,-0.3 -2,-0.3 z"
     id="path4" />
</svg>
