<?xml version="1.0" encoding="UTF-8" standalone="no"?>
<svg
   version="1.0"
   width="378.000000pt"
   height="378.000000pt"
   viewBox="0 0 378.000000 378.000000"
   preserveAspectRatio="xMidYMid meet"
   id="svg8"
   sodipodi:docname="C2-Sec61b_Halo-paJF646+400uMOA_002.czi.tif_avg17.tif_musical_NImgs=11_NFrames=10_th=4.0_alpha=6.0_gauss=1.5pxs_croped=67_usharp_r=4_mask=0.9_Simple_Segmentation_erode_disk2_close_disk2_maxReg_poly.svg"
   inkscape:version="1.1.2 (0a00cf5339, 2022-02-04)"
   xmlns:inkscape="http://www.inkscape.org/namespaces/inkscape"
   xmlns:sodipodi="http://sodipodi.sourceforge.net/DTD/sodipodi-0.dtd"
   xmlns="http://www.w3.org/2000/svg"
   xmlns:svg="http://www.w3.org/2000/svg">
  <defs
     id="defs12" />
  <sodipodi:namedview
     id="namedview10"
     pagecolor="#ffffff"
     bordercolor="#666666"
     borderopacity="1.0"
     inkscape:pageshadow="2"
     inkscape:pageopacity="0.0"
     inkscape:pagecheckerboard="0"
     inkscape:document-units="pt"
     showgrid="false"
     inkscape:zoom="1.7321429"
     inkscape:cx="252"
     inkscape:cy="252"
     inkscape:window-width="3766"
     inkscape:window-height="2096"
     inkscape:window-x="74"
     inkscape:window-y="27"
     inkscape:window-maximized="1"
     inkscape:current-layer="svg8" />
  <metadata
     id="metadata2">
Created by potrace 1.16, written by Peter Selinger 2001-2019
</metadata>
  <path
     style="fill:none;stroke:#000000;stroke-width:0.1;stroke-opacity:1"
     d="m 82.2,351.3 4.3,3.3 0.3,1.7 0.4,1.8 -2.2,4 -2.1,4.1 -3.6,4.4 -3.7,4.3 -1.4,0.6 -1.5,0.5 -1.8,-1.6 -1.9,-1.7 v -2.3 -2.4 l -1.2,-7 -1.2,-7.1 1,-1.7 1.1,-1.7 0.9,-0.1 0.9,-0.1 1.5,-0.6 1.5,-0.5 1.5,-0.5 1.5,-0.5 0.7,-0.1 0.6,-0.1 z"
     id="path1023" />
  <path
     style="fill:none;stroke:#000000;stroke-width:0.1;stroke-opacity:1"
     d="m 123.9,304.6 4.5,0.7 6.9,7 6.9,7.1 -0.6,2.9 -0.6,2.9 -2.6,5.8 -2.6,5.8 -2.6,2.5 -2.7,2.4 -4.7,1.2 -4.7,1.1 h -2.8 -2.8 l -4.2,1.5 -4.3,1.5 -6.9,0.6 -6.9,0.7 -4.7,-4.4 -4.8,-4.4 0.7,-7.5 0.7,-7.5 0.4,-4 0.3,-4 1.1,-4.9 1.1,-4.9 1,-1.2 1,-1.2 14.8,-0.2 14.7,-0.1 z"
     id="path1021" />
  <path
     style="fill:none;stroke:#000000;stroke-width:0.1;stroke-opacity:1"
     d="m 58.5,291.7 5,1.5 4,0.8 4,0.9 3,1.1 3,1.1 2.8,2.7 2.7,2.6 v 2.6 2.5 l -2.6,3.9 -2.6,3.8 -0.1,2.2 v 2.1 l 0.7,10.1 0.8,10.2 -2.5,1.7 -2.5,1.6 -5.4,0.6 -5.4,0.5 -7.9,-7.5 -8,-7.4 -4.9,-9.8 -4.8,-9.7 -0.1,-4.2 v -4.3 l 2.2,-3.1 2.2,-3.1 3.7,-3.1 3.6,-3 2.1,0.7 2,0.6 z"
     id="path1019" />
  <path
     style="fill:none;stroke:#000000;stroke-width:0.1;stroke-opacity:1"
     d="m 190.1,287 5.6,1 5.4,1.8 5.4,1.9 2.5,-0.3 2.5,-0.3 5.4,1 5.4,0.9 1.9,1.7 1.8,1.6 v 2.5 2.6 l -1.1,6 -1.1,6.1 -0.9,1.7 -0.9,1.8 v 1.3 1.4 l -1.7,1.5 -1.8,1.5 -5.2,1.3 -5.2,1.2 -3.3,-0.7 -3.3,-0.8 -3.5,-1.5 -3.5,-1.5 -4,-2 -4,-2 -4.6,-4.4 -4.7,-4.5 0.5,-5.9 0.6,-5.9 -1.1,-1.2 -1,-1.3 -0.3,-3 -0.3,-3 0.8,-1.4 0.9,-1.3 3.6,0.6 3.6,0.7 z"
     id="path1017" />
  <path
     style="fill:none;stroke:#000000;stroke-width:0.1;stroke-opacity:1"
     d="m 131,246.2 6.5,4 7.9,8.7 8,8.6 6.5,6.8 6.6,6.7 1.5,1.6 1.5,1.5 2.3,1.7 2.2,1.7 0.5,2.4 0.4,2.4 -1.9,2.7 -2,2.8 v 4.9 5 l -1.9,1.7 -1.9,1.7 -8.2,1.5 -8.2,1.4 -0.8,0.5 -0.9,0.6 -3.9,-3.5 -3.9,-3.6 -2.8,-4 -2.8,-4.1 2.1,-4.7 2.1,-4.7 0.6,-4.5 0.6,-4.5 -1.3,2.5 -1.4,2.5 -1.8,0.3 -1.8,0.4 -3.5,3.9 -3.5,3.9 -3.3,0.9 -3.3,0.9 -13.1,0.1 -13.1,0.2 -2.2,-1.2 -2.3,-1.1 -2.7,-2.5 -2.6,-2.5 0.5,-1.7 0.6,-1.6 3.7,-5.6 3.8,-5.5 3.2,-7.5 3.3,-7.4 2.8,-3.6 2.9,-3.7 v -1.2 -1.3 l 5.3,-4.9 5.2,-4.9 4,0.6 4,0.6 z"
     id="path1015" />
  <path
     style="fill:none;stroke:#000000;stroke-width:0.1;stroke-opacity:1"
     d="m 110.3,238 2.9,3.2 -2.3,2.4 -2.3,2.4 -3.5,1 -3.6,1 h -3.6 -3.7 l -1.1,-1.4 -1.2,-1.4 -0.8,-3 -0.9,-3 1.4,-2 1.4,-2.1 2.3,-0.4 2.2,-0.5 4.9,0.3 5,0.2 z"
     id="path1013" />
  <path
     style="fill:none;stroke:#000000;stroke-width:0.1;stroke-opacity:1"
     d="m 312.8,232.1 5.7,3.1 1.3,1.1 1.3,1.1 1.6,2.9 1.5,3 -4.4,3.8 -4.3,3.9 -2.4,0.6 -2.4,0.7 -6.3,-3.3 -6.3,-3.2 -2.4,-3.2 -2.3,-3.1 1.1,-3 1,-3 0.9,-1.3 0.8,-1.3 1.9,-0.7 1.8,-0.7 3.1,-0.2 3.1,-0.2 z"
     id="path1011" />
  <path
     style="fill:none;stroke:#000000;stroke-width:0.1;stroke-opacity:1"
     d="m 65,223.2 3.5,2.2 1.7,1.1 1.6,1 4.8,3 4.8,3 3.9,4.1 4,4.2 1.2,3.6 1.3,3.6 -0.8,6.8 -0.7,6.7 -2.1,4.3 -2.1,4.3 -0.7,3.2 -0.6,3.2 -1.8,3.5 -1.8,3.5 -2.6,2.4 -2.7,2.5 -11.3,-2.8 -11.4,-2.7 -2.1,-1.6 -2.2,-1.5 -1.1,-2.7 -1,-2.6 -0.4,-1.9 -0.3,-1.9 -1.4,-1.6 -1.5,-1.6 -1.6,-3.2 -1.6,-3.3 0.1,-0.5 0.1,-0.5 -0.7,-3.9 -0.6,-3.8 1.5,-3.7 1.5,-3.6 -0.6,-1.6 -0.5,-1.5 1.4,-1.7 1.5,-1.7 1.2,-5 1.3,-5 2.4,-3.2 2.4,-3.2 4.3,-0.9 4.2,-1 1,-0.1 1,-0.1 z"
     id="path1009" />
  <path
     style="fill:none;stroke:#000000;stroke-width:0.1;stroke-opacity:1"
     d="m 184.8,220.3 1.7,1.5 1.9,-0.4 1.8,-0.3 3.7,1.6 3.6,1.6 2.7,1.3 2.6,1.4 h 1.9 1.9 l 3.3,2.4 3.2,2.4 3.4,0.6 3.5,0.7 4.2,1.9 4.2,1.9 2.6,-0.6 2.6,-0.5 4.5,1.2 4.4,1.2 3.8,3.9 3.7,4 v 2.5 2.5 l -2.5,4.8 -2.4,4.9 -3,4.4 -2.9,4.3 -2.1,1.9 -2.1,1.9 -2.2,4.3 -2.1,4.3 -2.9,2.8 -2.8,2.7 -4.8,-1.1 -4.7,-1.1 -5.5,-2 -5.5,-1.9 -9.5,-0.7 -9.4,-0.7 -6.4,-2.2 -6.4,-2.2 L 159.4,262.3 146,249 v -2.4 -2.4 l 6.6,-6.1 6.7,-6.1 h 0.7 0.8 l 0.6,-2.4 0.6,-2.4 5.2,-4.7 5.1,-4.6 5.4,0.5 5.5,0.4 z"
     id="path1007" />
  <path
     style="fill:none;stroke:#000000;stroke-width:0.1;stroke-opacity:1"
     d="m 270,216.5 3,1.5 4.9,4.3 5,4.2 2.1,1.5 2.1,1.5 0.5,4.5 0.5,4.5 0.4,1.2 0.4,1.2 -1.2,0.8 -1.2,0.7 -6.5,0.5 -6.5,0.4 -6.8,0.1 -6.9,0.1 -3.9,-4.5 -3.8,-4.5 -0.1,-1.4 v -1.3 l 4.6,-7.4 4.6,-7.4 1.7,-1 1.6,-0.9 1.3,-0.1 h 1.3 z"
     id="path1005" />
  <path
     style="fill:none;stroke:#000000;stroke-width:0.1;stroke-opacity:1"
     d="m 28.9,214.5 2.9,1.4 4.1,4.7 4.1,4.6 0.6,3.3 0.6,3.3 -4.1,9.5 -4,9.5 2,7.2 2,7.2 1.5,3 1.5,3 1.9,5.9 2,6 -1.5,2.2 -1.4,2.2 -3.4,2.7 -3.4,2.6 -2.5,-2.1 -2.6,-2.2 -2.6,-4.8 -2.6,-4.8 v -1.3 -1.3 l -2.6,-2.4 -2.6,-2.4 -1.9,-4 -2,-4 -0.4,-5.2 -0.4,-5.2 -1.5,-3 -1.6,-3 -0.3,-2 -0.3,-2 -0.6,-0.7 -0.7,-0.6 0.6,-1.4 0.5,-1.4 -1.1,-1.4 -1.1,-1.3 0.6,-0.6 0.6,-0.6 -0.8,-1.2 -0.8,-1.3 -0.1,-2 -0.2,-2.1 -0.7,-4.6 -0.8,-4.5 1.8,-1.5 1.7,-1.4 4.1,-1.7 4.1,-1.7 h 4.3 l 4.3,-0.1 z"
     id="path1003" />
  <path
     style="fill:none;stroke:#000000;stroke-width:0.1;stroke-opacity:1"
     d="m 345.7,181.2 1,1.3 -0.4,2 -0.5,2 -0.4,7.5 -0.5,7.5 v 5.7 l 0.1,5.7 -1.8,4.8 -1.8,4.8 0.2,2.7 0.1,2.7 -3.1,3 -3.1,3 -2.8,1.4 -2.8,1.5 -4.2,-1.7 -4.2,-1.6 -3.6,-2.7 -3.6,-2.8 -3.1,-0.6 -3.1,-0.6 -1.6,-1.8 -1.6,-1.8 1.3,-0.9 1.3,-0.8 2,-1 1.9,-1 0.7,-3.2 0.6,-3.2 1.6,-3.3 1.6,-3.3 2,-4.8 2.1,-4.9 v -2.7 -2.7 l 1.4,-2 1.5,-2 4.3,-1.3 4.3,-1.2 3.1,-1 3,-0.9 h 1.6 1.6 l 1.2,-1.5 1.2,-1.5 h 0.8 0.8 z"
     id="path1001" />
  <path
     style="fill:none;stroke:#000000;stroke-width:0.1;stroke-opacity:1"
     d="m 292,178.5 3.5,0.7 6.1,2.4 6.1,2.5 2.7,2.8 2.7,2.8 0.5,3.5 0.4,3.5 -2.5,3.8 -2.6,3.7 0.1,3.1 0.1,3.2 -0.5,3.5 -0.6,3.4 -3.3,3.3 -3.3,3.3 -5.1,0.6 -5.1,0.7 -8.3,-8 -8.4,-7.9 -4.9,-3.5 -4.8,-3.4 -2,-3.9 -2,-4 -1.9,-5.5 -1.9,-5.4 0.9,-1.1 1,-1.2 2.4,-0.2 2.5,-0.2 4.9,-2 4.8,-2 7.5,0.5 7.5,0.4 z"
     id="path999" />
  <path
     style="fill:none;stroke:#000000;stroke-width:0.1;stroke-opacity:1"
     d="m 47.5,176.2 2.7,3.2 1.3,3.1 1.3,3 2.5,6 2.5,6 1.3,6.8 1.3,6.8 -2.5,2.5 -2.5,2.5 -5.3,0.2 -5.3,0.2 -6,-6.5 -6,-6.5 -1,-2.5 -1,-2.5 -1.9,-5 -1.9,-5 v -3.7 -3.8 l 2.3,-1.4 2.2,-1.4 4,-1.2 4,-1.3 2,-1.3 1.9,-1.4 h 0.7 0.7 z"
     id="path997" />
  <path
     style="fill:none;stroke:#000000;stroke-width:0.1;stroke-opacity:1"
     d="m 200.2,153.5 2.9,2.5 5.7,3.3 5.7,3.3 5,1.9 5,1.9 9.2,5.4 9.1,5.5 4.6,4.6 4.5,4.6 1.6,6.5 1.6,6.5 1.5,5.2 1.6,5.2 -0.7,2.2 -0.7,2.2 -3.4,4.7 -3.4,4.7 v 0.9 0.9 l -2.3,2.8 -2.2,2.8 -12,-1.5 -12,-1.5 -3.5,-1.2 -3.5,-1.2 -1,-0.8 -0.9,-0.9 h -1.3 -1.4 l -2.9,-2.2 -2.9,-2.1 -3.8,0.1 -3.7,0.2 -1.5,-1.4 -1.6,-1.4 -3.1,-0.6 -3.1,-0.7 -3.2,-3.3 -3.2,-3.3 0.5,-14.2 0.5,-14.2 -2.6,-5.1 -2.5,-5 0.4,-5.5 0.5,-5.4 2,-2.7 2,-2.7 3.4,-0.6 3.4,-0.6 2.5,-1.1 2.5,-1.1 h 1.9 l 1.8,-0.1 z"
     id="path995" />
  <path
     style="fill:none;stroke:#000000;stroke-width:0.1;stroke-opacity:1"
     d="m 165.4,147.7 0.7,0.7 2.1,0.3 2.2,0.4 2.3,2.1 2.3,2.1 0.5,1.8 0.6,1.8 -1.5,2.9 -1.5,3 -2.7,3.1 -2.6,3.1 h -4.5 -4.4 l -5.2,-2.2 -5.2,-2.1 -1.4,-1.3 -1.4,-1.3 1.5,-2.3 1.5,-2.3 4.2,-5.3 4.1,-5.2 h 3.9 3.8 z"
     id="path993" />
  <path
     style="fill:none;stroke:#000000;stroke-width:0.1;stroke-opacity:1"
     d="m 336.2,140.2 5.9,6.3 1.5,2.7 1.4,2.8 -0.2,0.3 -0.3,0.4 1.3,1.6 1.3,1.6 0.6,5.3 0.5,5.4 -1.4,3 -1.5,2.9 0.4,1.1 0.3,1 -2.5,2.4 -2.5,2.3 v -0.5 -0.5 l -4.6,0.8 -4.6,0.9 -1.8,-1 -1.9,-1 -0.5,0.9 -0.6,0.8 -4.2,0.7 -4.2,0.7 -6.1,-2.2 -6,-2.3 -4.2,-2.3 -4.2,-2.3 h -5.2 -5.2 l -4.1,-1.2 -4.1,-1.2 -1.3,-0.9 -1.3,-1 0.5,-5.8 0.5,-5.9 2.1,-4 2.1,-4.1 3.1,-1.9 3.1,-1.9 7.1,-1.2 7.1,-1.2 2.6,-1.8 2.6,-1.8 9.2,-1.5 9.3,-1.5 0.6,-0.5 0.5,-0.6 h 1.5 1.5 z"
     id="path991" />
  <path
     style="fill:none;stroke:#000000;stroke-width:0.1;stroke-opacity:1"
     d="m 48.1,133.6 1.7,1.5 -0.5,4.2 -0.6,4.2 -1.1,1.5 -1.2,1.5 0.6,3.5 0.6,3.5 -1.2,5.7 -1.1,5.8 -1.7,2.5 -1.7,2.6 -2.7,1 -2.7,1 -1.5,1.3 -1.5,1.3 -3.2,1.1 -3.1,1 -1.6,-1.7 -1.6,-1.8 v -1.4 l -0.1,-1.4 -1.8,-5.4 -1.9,-5.3 0.5,-1.8 0.5,-1.7 4.3,-4.9 4.3,-4.9 h 3.2 3.3 l 0.7,-1.5 0.8,-1.5 2.1,-4.7 2.2,-4.8 1.7,-1 1.7,-0.9 0.4,-0.1 h 0.4 z"
     id="path989" />
  <path
     style="fill:none;stroke:#000000;stroke-width:0.1;stroke-opacity:1"
     d="m 43.7,110.3 0.7,1.2 0.3,1.5 0.2,1.5 0.1,4.5 0.1,4.5 -0.3,1.6 -0.4,1.6 -1.7,2.6 -1.7,2.6 -3.4,2.6 -3.4,2.6 -2.1,0.4 -2.2,0.4 -1.9,-3.1 -1.9,-3.2 0.5,-0.7 0.4,-0.8 -1,-0.6 -1,-0.6 v -3.8 -3.7 l 3.1,-4.2 3.1,-4.2 h 0.7 0.8 l 3.2,-3 3.1,-3.1 2,1.1 1.9,1 z"
     id="path987" />
  <path
     style="fill:none;stroke:#000000;stroke-width:0.1;stroke-opacity:1"
     d="m 210.2,90.1 6.3,2.1 2.1,1.9 2,1.9 h 2.2 2.1 l 0.6,-1 0.6,-1 0.9,0.5 0.9,0.5 0.6,-1 0.6,-1 h 2.9 2.9 l 2.4,-0.9 2.5,-1 1.5,1.7 1.4,1.7 0.7,4 0.7,4 3.7,8.9 3.7,8.8 4,2.8 4,2.8 7.2,7.6 7.3,7.6 0.6,2.6 0.7,2.6 -1.6,3.2 -1.5,3.2 -1.2,8 -1.3,7.9 -1.4,1.6 -1.3,1.6 -5.7,2.7 -5.6,2.8 -2.4,-1.1 -2.3,-1.1 -6.7,-5.1 -6.6,-5 -4.6,-2.4 -4.6,-2.3 -4,-2.1 -3.9,-2.1 h -2 -2 l -4.2,-2 -4.2,-2.1 -4.1,-4.4 -4.1,-4.5 -0.1,-4.2 v -4.3 l -0.9,-4.5 -0.8,-4.5 -0.5,-2.1 -0.5,-2.1 -2.5,-7.2 -2.5,-7.2 -2.6,-2 -2.6,-2.1 -1.5,-2.7 -1.4,-2.8 2.4,-3.5 2.4,-3.5 3.3,-1.7 3.3,-1.7 4.2,0.5 4.2,0.6 z"
     id="path985" />
  <path
     style="fill:none;stroke:#000000;stroke-width:0.1;stroke-opacity:1"
     d="m 121.7,64.2 0.7,1.3 0.4,1.5 0.4,1.5 0.5,4.1 0.5,4.2 -2.8,4.3 -2.8,4.4 -0.2,1.3 -0.2,1.4 -0.5,0.5 -0.5,0.5 0.9,2.8 1,2.8 2.1,0.6 2.1,0.5 0.8,-0.5 0.8,-0.5 0.7,-3.4 0.6,-3.5 3,-2.5 3,-2.5 h 1.4 1.4 l 2,3.2 2,3.3 v 3.1 3.2 l 2.5,0.6 2.5,0.6 1.9,-1 1.9,-1 1.3,1.6 1.3,1.5 3.8,2 3.8,1.9 2.1,4.1 2.1,4.2 -0.6,3.6 -0.5,3.6 1.5,-4.1 1.5,-4.1 2.7,-2.6 2.7,-2.6 4.1,-0.7 4.1,-0.6 3.6,3.2 3.6,3.1 2,3.2 1.9,3.2 1.6,4.8 1.6,4.8 0.5,7.7 0.6,7.7 -1.3,2.5 -1.4,2.5 -4.9,1.1 -5,1.1 -2.8,-0.8 -2.8,-0.8 -3,-2.5 -3.1,-2.6 h -2 -2 l -3.9,-3.9 -3.9,-3.9 v -2.3 -2.4 l 0.9,-3.2 0.9,-3.1 -4.5,3.4 -4.5,3.4 -2.5,0.6 -2.5,0.7 -8.8,-0.5 -8.9,-0.5 -2.6,-2.1 -2.6,-2.1 -1.5,0.6 -1.4,0.5 -0.1,1.2 -0.1,1.1 0.2,2.5 0.2,2.5 2.1,1.7 2.2,1.8 h 11.1 11 l 3.4,3.5 3.4,3.5 -1.5,2.6 -1.4,2.7 -6.9,6.3 -7,6.4 -5.4,3.7 -5.4,3.8 -4.4,3.9 -4.4,3.9 v 2.7 2.7 l 1.8,1.4 1.7,1.5 2.7,1.3 2.6,1.3 1.3,-0.4 1.2,-0.4 0.3,-1.7 0.2,-1.6 2.4,-4.7 2.3,-4.7 3.9,-2.9 3.9,-2.8 h 2.1 2.2 l 2.4,1.7 2.5,1.6 2.7,2.5 2.8,2.5 3.9,-1.1 3.9,-1.2 4.4,2.3 4.3,2.2 2,4 1.9,4 v 7 l -0.1,7 -2.1,4 -2,4 -3.9,3.6 -3.8,3.7 -4,2 -4,2 -2.8,3.9 -2.7,3.8 -4.3,6.5 -4.3,6.5 -2.5,-0.2 -2.4,-0.1 -4.5,-2.2 -4.5,-2.1 -3.5,-2 -3.5,-1.9 -4.1,-3.5 -4.2,-3.4 -0.9,-2.8 -1,-2.8 0.2,-3 0.3,-3 0.7,-3.7 0.7,-3.7 -2.1,-2.7 -2.1,-2.7 v -3.8 -3.9 h -2.7 -2.6 l -1.8,1.6 -1.8,1.6 0.6,3.2 0.6,3.1 0.7,1 0.8,1 1.1,5.3 1.1,5.3 v 4.3 4.3 l -1.7,1.5 -1.8,1.5 -4.3,1.1 -4.2,1 -3.5,-0.8 -3.4,-0.8 -5,-3.6 -5,-3.7 -4.6,-5.1 -4.5,-5 v -3.2 -3.3 l -2.6,-2.4 -2.5,-2.4 0.2,-4 0.2,-4 L 61.1,189 61,186.4 56.5,179 52,171.5 v -2.6 -2.6 l 1.1,-3.4 1.1,-3.4 4,-3.6 3.9,-3.6 -3.5,-4.2 -3.6,-4.3 v -1.6 -1.7 l -1.6,-3 -1.6,-3 v -3.8 l 0.1,-3.9 0.6,-2.9 0.6,-2.9 -0.7,-1.2 -0.8,-1.3 -0.4,-3.9 -0.3,-4 0.6,-3.3 0.6,-3.3 3.2,-3.7 3.2,-3.6 4.1,-1.8 4.1,-1.8 8.9,-1 8.9,-1 4.6,0.4 4.6,0.4 2.4,-3.2 2.3,-3.2 -0.1,-5.7 -0.2,-5.7 0.9,-0.6 1,-0.6 v -2.7 -2.8 l 1.6,-2.2 1.5,-2.2 h 8.9 8.9 z"
     id="path983" />
  <path
     style="fill:none;stroke:#000000;stroke-width:0.1;stroke-opacity:1"
     d="m 348.6,52.5 2.4,1.5 0.6,2.6 0.6,2.5 -2.1,6.9 -2.2,7 -2.7,1.9 -2.7,1.9 -3.6,1 -3.7,1 -2.4,-2.2 -2.5,-2.1 -1,-2.5 -1,-2.5 0.1,-7.9 0.1,-7.9 3,-1.7 3,-1.8 5.9,0.4 5.9,0.4 z"
     id="path981" />
  <path
     style="fill:none;stroke:#000000;stroke-width:0.1;stroke-opacity:1"
     d="m 81,48.1 3.5,2.1 5,5.6 5,5.5 1.2,2.1 1.2,2.1 v 3 3 l -3.2,3.6 -3.2,3.6 -3.3,2.2 -3.3,2.3 -8.7,1.4 -8.7,1.4 -5.2,1.7 -5.2,1.7 -2,-1.8 -2,-1.8 0.3,-3.2 0.4,-3.1 -0.9,-1.1 -0.9,-1.2 1,-2.7 1.1,-2.8 -0.5,-0.4 -0.4,-0.4 1.3,-4.8 1.3,-4.9 -0.8,-1.3 -0.8,-1.2 1,-2.6 0.9,-2.6 1.6,-1.8 1.7,-1.7 5.3,-1.6 5.3,-1.5 0.5,-0.9 0.5,-0.8 3.7,0.4 3.8,0.5 z"
     id="path979" />
  <path
     style="fill:none;stroke:#000000;stroke-width:0.1;stroke-opacity:1"
     d="m 287.6,32.7 3.1,2.3 h 1.9 1.9 l 6.7,4.4 6.7,4.4 3.2,0.7 3.2,0.7 4.2,4.2 4.2,4.2 0.6,4.9 0.7,4.8 v 7.2 7.2 l -2.1,1.9 -2.1,1.9 h -6.9 -6.8 l 2.4,1.3 2.4,1.2 1.1,2 1,1.9 v 2.5 2.6 h 1.2 1.2 l 3.1,-3 3.2,-3.1 2.4,1 2.5,0.9 1.3,1.6 1.3,1.5 1.4,10.8 1.4,10.7 -0.1,5.8 -0.2,5.7 -1.8,1.7 -1.9,1.7 -1.8,0.2 -1.7,0.1 -6.8,3.3 -6.7,3.3 -8.1,-0.1 -8.1,-0.1 -0.7,-0.4 -0.8,-0.5 -4.4,1.3 -4.5,1.4 -2.6,-1.2 -2.7,-1.1 -11.9,-11.7 -11.9,-11.7 -3.7,-9.1 -3.6,-9.1 0.6,-2.7 0.7,-2.7 2.6,-2.9 2.6,-2.9 5.4,-3.5 5.4,-3.5 4.1,2.1 4.2,2 0.2,-3 0.3,-3.1 -1.6,-2.4 -1.6,-2.4 0.6,-3.2 0.7,-3.3 -1.6,-8 -1.5,-7.9 -1,-2.8 -1.1,-2.8 2.5,-2.5 2.4,-2.4 h 1.8 l 1.8,-0.1 3.4,-2.9 3.4,-2.9 1.1,0.6 1.1,0.7 z"
     id="path977" />
  <path
     style="fill:none;stroke:#000000;stroke-width:0.1;stroke-opacity:1"
     d="m 178.3,24.9 3.4,1.9 h 2.4 l 2.4,-0.1 4.9,1.1 4.8,1 2.4,2.3 2.3,2.4 1.1,8.5 1.1,8.5 1,3.1 1,3.1 0.5,3.9 0.5,3.9 -1.3,4.4 -1.3,4.3 -3,3.4 -3,3.3 -3,0.3 -3,0.2 -1.3,1 -1.4,1 -7.1,-0.1 -7.1,-0.2 2.9,2.3 2.9,2.4 -1.3,1.6 -1.3,1.6 h 0.8 0.7 l -2.3,2.5 -2.4,2.5 -3.3,0.9 -3.4,1 -2.6,-0.5 -2.6,-0.5 -6.2,-2.9 -6.3,-2.9 -4,-6.1 -4,-6 -0.7,-3 -0.7,-3 0.1,-0.7 v -0.8 l -1.6,-1.7 -1.5,-1.7 0.6,-3.4 0.6,-3.4 5,-5.8 5,-5.7 3.4,-5.2 3.4,-5.3 6.2,-6.6 6.2,-6.7 3.2,-0.9 3.1,-0.9 0.2,-0.1 0.2,-0.1 z"
     id="path975" />
  <path
     style="fill:none;stroke:#000000;stroke-width:0.1;stroke-opacity:1"
     d="m 340.4,17.2 4.1,1.2 2.6,1.8 2.7,1.8 0.6,2.6 0.7,2.6 2.2,-3.4 2.3,-3.3 1.6,-0.3 1.7,-0.3 4,4 4.1,4.1 v 1.9 1.9 l -5.4,4.5 -5.3,4.6 -2.2,-1.5 -2.1,-1.5 -0.1,0.8 -0.2,0.8 -0.2,2.3 -0.2,2.4 -2.1,2 -2,2 -3.3,-1.1 -3.4,-1.1 -4.8,-0.4 -4.7,-0.5 -3.3,-2 -3.3,-2 -1.8,-1.9 -1.7,-2 3.7,-9.3 3.7,-9.4 1,-1.3 0.9,-1.2 h 3.1 3 z"
     id="path973" />
  <path
     style="fill:none;stroke:#000000;stroke-width:0.1;stroke-opacity:1"
     d="m 81.3,17.8 1.7,1.5 -2,2.2 -2.1,2.2 -0.6,5.3 -0.6,5.2 -2.1,2.4 L 73.5,39 66.8,40 60,41 57.5,40.4 54.9,39.8 52.5,36.1 50,32.5 V 31.2 30 l 5.1,-6.5 5.1,-6.5 1.6,-0.9 1.7,-1 8,0.6 8,0.5 z"
     id="path971" />
  <path
     style="fill:none;stroke:#000000;stroke-width:0.1;stroke-opacity:1"
     d="m 240.7,9.9 4.1,1.9 1.2,2.2 1.2,2.2 2,6.1 2,6.2 0.3,3.4 0.2,3.5 1.4,0.4 1.4,0.5 2.8,1.9 2.7,2 2,3.8 2,3.9 0.6,5.4 0.7,5.5 -0.7,3.6 -0.7,3.5 -6.6,4.8 -6.5,4.8 -7,5.2 -7,5.2 -5,1 -5,1.1 -4.7,-0.5 -4.6,-0.6 -5,-1.6 -5,-1.6 -1.7,-1.4 -1.7,-1.5 2.9,-3.7 2.9,-3.6 0.6,-2.7 0.7,-2.7 1.6,-1.4 1.7,-1.5 7.9,-0.7 7.9,-0.7 5.3,-3.4 5.4,-3.5 v -1.5 -1.5 l -2.8,2.1 -2.9,2.1 -6.4,0.5 -6.4,0.4 -2.2,0.5 -2.2,0.5 -3.5,-3.1 -3.6,-3.1 -1,-3.6 -0.9,-3.7 -0.4,-8.2 -0.4,-8.3 1.6,-1.3 1.6,-1.4 3.3,-1.4 3.2,-1.4 v -0.7 -0.7 l 3.3,-3.4 3.2,-3.5 1.1,-1.9 1.1,-1.8 3.9,-2.1 3.9,-2.2 1,-0.1 1,-0.1 z"
     id="path969" />
  <path
     style="fill:none;stroke:#000000;stroke-width:0.1;stroke-opacity:1"
     d="m 318.1,9.5 3.4,2.5 1.3,1.7 1.2,1.7 v 2.7 2.7 l -2.6,5.6 -2.5,5.6 -2.9,2 -2.8,2 h -2.5 -2.4 l -4.7,-2.5 -4.7,-2.5 h -1.3 -1.2 l -2.7,-2.8 -2.8,-2.9 -0.5,-4.1 -0.5,-4 3.1,-2.2 3,-2.1 8.2,-2.9 8.3,-2.8 1.1,-0.1 1,-0.1 z"
     id="path967" />
  <path
     style="fill:none;stroke:#000000;stroke-width:0.1;stroke-opacity:1"
     d="M 12.3,3.6 12.2,7.1 10.6,8.9 9,10.7 v 1.6 1.6 l 1.3,-0.5 1.4,-0.5 4.6,6.3 4.7,6.3 v 1.2 1.1 L 17.9,30.4 14.8,33 H 11.4 8 L 6,31.8 4,30.5 2.2,31.6 0.5,32.7 0.2,37.4 -0.1,42 l 2.8,2.4 2.8,2.4 1,-0.8 1.1,-0.9 8.3,-3.6 8.3,-3.5 6.9,-0.2 6.9,-0.2 4.4,4.3 4.4,4.3 0.7,3.2 0.7,3.1 -0.3,6 -0.2,6 V 76 87.5 l 0.7,3 0.6,3 -4.9,6.1 -5,6.2 -4.3,1.5 -4.3,1.5 -5.2,1.2 -5.1,1.1 -6.4,-1.2 -6.3,-1.2 -1.9,-1.3 -2,-1.4 -1.8,1.7 -1.8,1.6 v 1.9 2 l 1.8,2.1 1.7,2.2 4.8,0.1 H 13 l 2.8,2.1 2.7,2 1.9,3.2 1.9,3.3 1,4.6 0.9,4.7 v 1.7 l -0.1,1.6 -5,6.3 -5.1,6.3 -1.7,0.4 -1.8,0.4 -5,0.3 -5,0.3 -0.3,3 -0.3,3.1 6.8,0.3 6.8,0.3 2.2,4.5 2.3,4.5 0.6,3.4 0.7,3.4 -4,3.8 -4.1,3.7 -4.4,0.7 -4.5,0.7 -1.4,0.9 -1.4,0.9 1.3,0.8 1.2,0.8 4.1,-0.3 4,-0.3 4,-1.9 4,-1.9 2.4,2.1 2.4,2.2 1.6,7.9 1.6,7.9 -1.6,1.7 -1.6,1.8 -2.9,0.5 -2.9,0.6 -4.4,2.1 -4.4,2.1 -3.9,0.2 -3.9,0.2 -0.3,10.5 -0.3,10.4 0.7,-0.7 0.7,-0.7 1.4,1.1 1.3,1.1 v 6 5.9 l 0.9,1.8 1,1.7 0.9,6.7 L 7.7,265 6,266.5 4.3,268 H 2.1 -0.1 l 0.3,3.1 0.3,3.2 4,1.2 4,1.1 4.3,2.9 4.2,2.8 3.5,4.7 3.5,4.7 2.5,5.4 2.5,5.4 v 2.6 2.7 l -1.7,2.1 -1.8,2.2 -8,2.8 -8,2.8 -1,0.3 -1,0.2 -3.7,3.4 L 0,325 v 3.4 3.5 l 0.9,0.6 0.9,0.5 6.6,-4.5 6.6,-4.5 v 0.5 0.5 l 2.8,-1.7 2.7,-1.7 4.9,-3.8 4.9,-3.8 1.4,1.1 1.4,1.2 3.4,7 3.5,7.1 v 5.3 5.4 l -1.6,2.4 -1.6,2.5 1.1,1.3 1.1,1.4 -0.3,12.7 -0.3,12.6 0.5,0.6 0.6,0.6 v 1.1 1.2 l 3.3,0.3 3.3,0.3 1.5,-1.2 1.4,-1.2 -1.6,-2.4 -1.6,-2.5 -0.9,-6.2 -0.8,-6.1 1,-6.5 1,-6.5 1.5,-1.6 1.5,-1.7 1.7,0.2 1.6,0.3 3.9,4.5 3.8,4.6 0.1,3.3 0.1,3.4 1.4,1.6 1.4,1.6 0.4,3.7 0.5,3.7 1.6,2.4 1.5,2.3 -0.3,1.9 -0.3,1.8 4.6,0.3 4.5,0.3 1.9,-2.1 1.8,-2 h 1.3 1.2 l 3.3,-5.2 3.3,-5.3 3.4,-4.3 3.4,-4.2 0.7,0.4 0.7,0.5 11.5,-2.9 11.4,-3 h 7 7.1 l 5,5.2 5,5.3 3,4 2.9,4 v 4.7 4.8 h 4.4 4.3 l -0.4,-2.5 -0.5,-2.5 1.3,-1.1 1.4,-1.1 v -2 -1.9 l -9.6,-10.1 -9.6,-10.2 0.6,-3.8 0.6,-3.8 2.4,-5.3 2.3,-5.3 3.1,-3.6 3.2,-3.5 5.2,-1.6 5.3,-1.5 4.3,-0.5 4.3,-0.5 5.7,3 5.7,3 2.5,2.2 2.5,2.3 6.3,2.2 6.3,2.2 4.7,-0.6 4.7,-0.6 5.7,-0.4 5.8,-0.5 3.7,3.3 3.8,3.2 8.3,7.4 8.4,7.5 2.9,4.2 2.9,4.3 v 1.9 1.9 l -2,5.8 -2,5.8 v 0.5 0.4 l 1.4,-1.1 1.3,-1.1 1.2,1.3 1.1,1.4 -0.5,0.6 -0.5,0.7 0.6,-0.5 0.7,-0.5 0.3,-5.2 0.3,-5.2 4.3,-4.3 4.2,-4.3 3.6,-0.6 3.5,-0.6 4,-2.2 4,-2.1 2.4,-1.8 2.4,-1.7 5.3,-1.6 5.3,-1.5 4.3,1.9 4.3,2 7.5,7.6 7.4,7.6 h 1 0.9 l 3.4,2.6 3.5,2.6 -0.5,2.6 -0.5,2.6 0.5,1.3 0.5,1.3 h 2.7 2.6 l 2,-4.2 2.1,-4.3 3.4,-1.7 3.5,-1.8 h 5.6 5.7 l 3.1,-0.6 3.1,-0.7 v -2.3 -2.3 l -1.6,-1.5 -1.5,-1.6 h -1.4 -1.4 l -0.6,1 -0.6,1 h -3.1 -3.1 l -4.4,-4.5 -4.3,-4.5 h -0.3 -0.3 l -0.2,2.6 -0.2,2.7 -1.2,1.4 -1.2,1.4 -2.5,1.3 -2.6,1.2 -2,-0.3 -2,-0.4 -2.7,-1 -2.6,-1.1 -6.4,-7.1 -6.4,-7.2 -2.2,-3.6 -2.2,-3.6 v -2.5 -2.5 l -3,-0.1 -3,-0.1 -2.5,3.4 -2.6,3.3 -7,3.6 -7,3.6 h -1.3 -1.3 l -2.6,2.1 -2.7,2 -3.5,0.6 -3.5,0.6 -0.6,0.8 -0.5,0.9 -4,-2.1 -4,-2 -7.7,-7.2 -7.7,-7.2 -4.8,-4.7 -4.9,-4.7 0.8,-3.8 0.7,-3.8 0.2,-5 0.1,-5 1.2,-2.2 1.2,-2.2 0.1,-3.8 0.1,-3.8 -0.3,-1.1 -0.4,-1.1 4.8,-6.1 4.8,-6.2 h 0.8 0.9 l 0.5,-3 0.6,-2.9 3.4,-5.3 3.3,-5.3 1.2,-2 1.2,-2 1.3,-3 1.4,-3 1.9,-1.6 1.9,-1.7 8,-0.5 8,-0.6 6.5,-0.7 6.5,-0.6 5.3,2.6 5.2,2.6 5.2,2.6 5.3,2.6 2.8,2.6 2.9,2.7 1.4,2.8 1.5,2.7 0.1,4.5 0.1,4.5 2.8,2 2.7,2 0.7,3 0.6,2.9 -1.1,2.1 -1.1,2.1 1.6,2.6 1.7,2.6 -0.4,6.6 -0.3,6.6 -2.4,3.3 -2.3,3.3 -1.5,-0.5 -1.4,-0.6 -2.5,1.6 -2.4,1.6 -1.9,-0.5 -2,-0.5 -1.6,1.8 -1.7,1.9 0.5,0.8 0.6,0.9 6.4,-0.7 6.5,-0.6 3.1,-2.3 3.2,-2.2 -0.6,-1.7 -0.5,-1.8 4,-3.6 4,-3.6 0.6,-3 0.6,-3 2,-1.8 2,-1.8 h 2.2 2.1 v -2 -2 l -3.3,-0.5 -3.2,-0.5 -3.5,-2.8 -3.5,-2.8 -1.4,-2.7 -1.4,-2.8 -0.3,-4.8 -0.3,-4.9 -2.3,-4.6 -2.3,-4.6 -3.1,-3.2 -3.1,-3.2 0.7,-1.1 0.6,-1 7.5,-5.5 7.4,-5.5 h 2.5 2.6 l 2.7,-1.4 2.7,-1.4 2.4,-2.5 2.3,-2.6 -0.4,-4.3 -0.5,-4.3 1.3,-2.5 1.2,-2.6 1.1,-7.8 1.1,-7.7 v -9.3 -9.2 l 1.1,-1.1 1.1,-1.1 -1.3,-2 -1.3,-2 1.9,-4.4 1.9,-4.3 1.1,-1.5 1.2,-1.5 0.8,-2 0.8,-2 0.3,-1.5 0.3,-1.5 -1.3,-1.5 -1.3,-1.5 -1.7,-3.8 -1.7,-3.8 -1.5,-5 -1.5,-5.1 0.5,-1.4 0.5,-1.4 -2.4,0.6 -2.4,0.6 -1.9,-3.2 -2,-3.2 -2.2,-1.5 -2.2,-1.6 0.7,-12.2 0.7,-12.3 -1.1,-0.6 -1,-0.7 0.5,-1.2 0.5,-1.3 -1,-6.9 -1,-7 2.1,-2.2 2.1,-2.3 h 2.1 2.1 l 1,-0.8 1,-0.7 0.3,-1.5 0.4,-1.5 2.5,-3.4 2.6,-3.3 1.3,-4.6 1.4,-4.6 1.7,-1.8 1.6,-1.8 h 1.1 1.1 l 4.7,4.3 4.7,4.3 -0.4,4.7 -0.4,4.7 h 2 1.9 l 0.6,-2.8 0.7,-2.7 1.9,-2.7 1.9,-2.7 -1.7,-2.6 -1.6,-2.5 -5.8,-3.1 -5.8,-3.1 -2.2,-2.3 -2.2,-2.3 -0.8,-3.8 -0.9,-3.8 0.5,-0.7 0.4,-0.7 5,-2.6 4.9,-2.6 3.3,0.4 3.3,0.3 2.1,-1.5 2,-1.6 -3.1,-2.7 -3.2,-2.8 0.7,-5.3 0.7,-5.3 h 0.1 0.1 l 0.9,-2.5 1,-2.6 1.6,-1.3 1.6,-1.3 V 9.9 9 h -1 -1 l -3,3.2 -2.9,3.3 -0.1,2.1 v 2.2 l -1.6,1.3 -1.6,1.3 -1.9,-2.3 -1.9,-2.3 v -1.6 -1.5 l -1.7,-1.9 -1.6,-1.8 1.6,-3.6 1.7,-3.5 v -2 -2 l -2.2,0.3 -2.2,0.3 -0.7,3.1 -0.6,3.2 -2.2,3.1 -2.2,3.1 h -3.2 -3.2 l -6.6,-1.4 -6.6,-1.4 -5.9,-3.1 -5.9,-3.1 h -1.6 -1.6 l -1.8,-2 -1.8,-2 h -1.2 -1.3 l -1.1,1.4 -1.2,1.5 -7.1,3.5 -7,3.5 -2.5,-1 -2.5,-0.9 -1.5,-4 -1.6,-4 -1.3,1.1 -1.3,1.1 0.5,2.6 0.5,2.7 -2.3,3.4 -2.3,3.4 -1.8,1.1 -1.7,1.1 -5.3,-2.9 -5.2,-2.9 2,2.3 2,2.4 2.8,2.4 2.7,2.4 v 1.7 1.7 l -4,3.9 -3.9,3.8 h -3.1 -3.1 l -3.4,-3.3 -3.4,-3.3 0.2,-0.6 0.1,-0.6 -1.8,-4.7 -1.8,-4.7 0.9,-2.8 1,-2.8 2.3,-1.2 2.4,-1.2 2.5,1.4 2.6,1.3 V 6.4 4 h -1.7 -1.8 l -1.2,-2 -1.3,-2 h -8.6 -8.6 l -1.8,2 -1.8,2 h -4.7 -4.7 l -1.8,-2 -1.8,-2 h -1.8 -1.8 l -0.5,0.9 -0.6,0.9 1.5,2.8 1.5,2.9 V 8.8 10 l -4,4.4 -4.1,4.4 -3.5,1.7 -3.6,1.7 -1.6,-1.5 -1.7,-1.5 -4.3,-0.7 -4.3,-0.7 -2.7,-2.3 -2.7,-2.3 V 7.6 2.1 l -1.1,-1.1 -1,-1 -1.9,2 -1.8,2 h -5.7 -5.7 l -1.8,-2 -1.8,-2 h -2.9 -2.9 l 0.8,2.2 0.8,2.3 -0.1,5.8 v 5.8 l -5,5.2 -4.9,5.2 -1.9,3.5 -1.9,3.5 -3.7,4 -3.7,4 -2.2,3.2 -2.1,3.2 -4.9,3.5 -4.9,3.6 h -3.3 -3.4 l -3.2,0.9 -3.2,0.9 L 109,56.3 100.8,55.7 94.9,50.3 89.1,44.9 86.5,39.2 83.9,33.5 83.2,32 82.4,30.5 83,26.3 83.6,22 86,19.5 88.3,17 h 2.4 2.4 l 2,-1.1 2.1,-1.1 -0.6,-1.3 -0.5,-1.3 1.7,-1.5 1.7,-1.4 4.5,-2.6 4.5,-2.5 3.1,0.2 3.1,0.1 1.1,-2.3 1,-2.2 H 103.5 90.1 l -0.6,0.9 -0.5,1 0.9,0.5 0.9,0.6 -1.4,3 -1.5,3 -2.7,2.1 -2.7,2.1 -4.8,-0.5 -4.8,-0.4 -2.6,-2 -2.6,-1.9 -1.2,-4 -1.1,-3.9 -2.5,-0.3 -2.6,-0.3 -1.4,1.7 -1.3,1.6 0.2,3.2 0.3,3.2 -3.5,4.4 -3.6,4.5 v 0.9 0.8 l -4.2,5 -4.2,5 -5,-0.7 -5.1,-0.6 -1.1,-1 -1.1,-0.9 -0.5,0.6 -0.6,0.5 -1.9,-2.8 -1.9,-2.8 -3.1,-6 -3,-6.1 L 18.6,6.8 17.9,3.2 19,2.5 20,1.9 19.5,0.9 18.9,0 h -3.3 -3.2 z"
     id="path4" />
</svg>
