<?xml version="1.0" encoding="UTF-8" standalone="no"?>
<svg
   version="1.0"
   width="378.000000pt"
   height="378.000000pt"
   viewBox="0 0 378.000000 378.000000"
   preserveAspectRatio="xMidYMid meet"
   id="svg8"
   sodipodi:docname="C2-Sec61b_Halo-paJF646+400uMBSA_008.czi.tif_avg17.tif_musical_NImgs=11_NFrames=10_th=4.0_alpha=6.0_gauss=1.5pxs_croped=67_usharp_r=4_mask=0.9_Simple_Segmentation_erode_disk2_close_disk2_maxReg_poly.svg"
   inkscape:version="1.1.2 (0a00cf5339, 2022-02-04)"
   xmlns:inkscape="http://www.inkscape.org/namespaces/inkscape"
   xmlns:sodipodi="http://sodipodi.sourceforge.net/DTD/sodipodi-0.dtd"
   xmlns="http://www.w3.org/2000/svg"
   xmlns:svg="http://www.w3.org/2000/svg">
  <defs
     id="defs12" />
  <sodipodi:namedview
     id="namedview10"
     pagecolor="#ffffff"
     bordercolor="#666666"
     borderopacity="1.0"
     inkscape:pageshadow="2"
     inkscape:pageopacity="0.0"
     inkscape:pagecheckerboard="0"
     inkscape:document-units="pt"
     showgrid="false"
     inkscape:zoom="1.7321429"
     inkscape:cx="252"
     inkscape:cy="252"
     inkscape:window-width="3766"
     inkscape:window-height="2096"
     inkscape:window-x="74"
     inkscape:window-y="27"
     inkscape:window-maximized="1"
     inkscape:current-layer="svg8" />
  <metadata
     id="metadata2">
Created by potrace 1.16, written by Peter Selinger 2001-2019
</metadata>
  <path
     style="fill:none;stroke:#000000;stroke-width:0.1;stroke-opacity:1"
     d="m 144.5,327.1 9,3.2 3.2,3.6 3.3,3.6 v 3.7 3.7 l -3.2,3.6 -3.1,3.6 -3.8,2 -3.8,1.9 h -2.5 -2.5 l -0.6,-1 -0.6,-0.9 -5,-2.6 -5.1,-2.5 h -1.2 -1.3 l -1.7,-1.9 -1.7,-1.9 1,-5.6 1,-5.6 1.7,-2.7 1.8,-2.8 2,-2.3 1.9,-2.2 h 1.1 1.1 z"
     id="path953" />
  <path
     style="fill:none;stroke:#000000;stroke-width:0.1;stroke-opacity:1"
     d="m 221.2,292.7 1.8,1.6 v 3.4 3.5 l -2.9,2.9 -2.9,2.9 h -2.5 -2.5 l -3.1,-3.9 -3.1,-3.9 v -0.9 -1 l 2.3,-2 2.2,-2 3,-1.1 3,-1 1.4,-0.1 1.4,-0.1 z"
     id="path951" />
  <path
     style="fill:none;stroke:#000000;stroke-width:0.1;stroke-opacity:1"
     d="m 323,278.7 2.5,1.7 5.4,4.9 5.5,4.9 7.5,5.7 7.4,5.6 8,5.7 7.9,5.6 2.4,2.3 2.3,2.2 1.5,4.6 1.4,4.6 -0.1,5.5 -0.2,5.5 -3.3,1.7 -3.3,1.6 -2.1,1.9 -2,1.8 h -5.7 -5.6 l -2.7,-0.8 -2.8,-0.7 -3.5,-3.1 -3.5,-3.1 -4.4,-5.8 -4.4,-5.7 -0.6,-3.9 -0.5,-3.9 -0.6,-4 -0.5,-4 -1.6,-4.9 -1.6,-4.8 -5.9,-6.5 -5.9,-6.5 -0.6,-2.5 -0.6,-2.4 2.3,-2.5 2.2,-2.4 h 1.7 1.6 z"
     id="path949" />
  <path
     style="fill:none;stroke:#000000;stroke-width:0.1;stroke-opacity:1"
     d="m 137,277.7 3,3.4 v 0.7 0.8 l -3,2.9 -3,2.8 -3.5,-3.7 -3.5,-3.7 v -2.8 -2.7 l 1.1,-1.1 1,-1 2.5,0.5 2.4,0.4 z"
     id="path947" />
  <path
     style="fill:none;stroke:#000000;stroke-width:0.1;stroke-opacity:1"
     d="m 30,273.2 2,2.3 5.4,6 5.5,6.1 2.2,0.1 2.3,0.2 1.3,-1.1 1.3,-1 1.6,0.6 1.7,0.6 1.1,-0.8 1.1,-0.8 11.5,0.7 11.5,0.7 2,-0.4 2.1,-0.5 1.8,1.9 1.7,2 -2,3.8 -2.1,3.9 v 0.6 0.7 l -3.5,5.8 -3.5,5.8 -3.3,3.4 -3.2,3.3 -4.4,2 -4.4,1.9 h -1.6 -1.7 l -2,1.5 -1.9,1.4 -2.3,0.1 h -2.3 l 0.3,1.8 0.3,1.7 -3.2,5.1 -3.1,5.1 -4.8,3.1 -4.7,3.2 h -1.2 -1.3 l -1,-1.3 -1.1,-1.3 -0.7,-6.7 -0.7,-6.7 2.8,-3.6 2.8,-3.6 -0.6,-6 -0.5,-5.9 -2.7,-4 -2.6,-4 -6.6,-6.4 -6.5,-6.4 0.6,-2.8 0.7,-2.8 5.7,-5.8 5.6,-5.7 h 1.4 1.3 z"
     id="path945" />
  <path
     style="fill:none;stroke:#000000;stroke-width:0.1;stroke-opacity:1"
     d="m 49,276.4 v 1.4 l -1.2,0.9 -1.3,1 -1.7,0.6 -1.7,0.6 -2.6,-2.1 -2.6,-2 0.3,-2.6 0.3,-2.7 2.5,-1.2 2.5,-1.3 2.8,3 2.7,3 z"
     id="path943" />
  <path
     style="fill:none;stroke:#000000;stroke-width:0.1;stroke-opacity:1"
     d="m 117.4,268.5 3,2.4 0.4,1.8 0.4,1.8 0.3,4.7 0.3,4.8 0.1,1 0.1,1.1 1.7,-0.3 1.7,-0.3 2.3,4 2.3,4 v 1.9 2 l -2.2,4.5 -2.1,4.6 -2,2.2 -2,2.3 h -1.5 -1.4 l 1.3,1.6 1.4,1.7 v 1.1 l 0.1,1.1 0.8,2.6 0.7,2.5 -2.6,7.5 -2.6,7.4 -0.4,1.5 -0.3,1.5 -0.1,2.2 -0.1,2.1 -7.4,7.6 -7.4,7.6 -2.7,5.5 -2.7,5.6 -2.4,1.5 -2.4,1.6 -7.2,-0.5 -7.3,-0.5 -3,-0.8 -3,-0.7 -12.6,-0.1 -12.6,-0.1 -1.4,-1.2 -1.4,-1.2 -2,-3.7 -2,-3.7 -2.8,-2.8 -2.7,-2.7 v -1 -1 l 3.4,-2.8 3.4,-2.9 5.7,-4.5 5.6,-4.5 7.2,-6.6 7.2,-6.5 7.2,0.2 7.3,0.3 0.8,0.5 0.8,0.5 1.3,-0.8 1.2,-0.8 0.9,-4 0.9,-4 -0.9,-3.4 -1,-3.4 v -8.1 -8.1 l 2.3,-2.1 2.2,-2.1 2.7,-0.6 2.7,-0.7 -1.5,-2.4 -1.6,-2.3 1.2,-3.6 1.2,-3.7 3,-3.3 2.9,-3.4 5.7,-1.2 5.7,-1.2 1,-0.9 0.9,-0.8 h 0.6 l 0.5,0.1 z"
     id="path941" />
  <path
     style="fill:none;stroke:#000000;stroke-width:0.1;stroke-opacity:1"
     d="m 306.6,261.3 2.5,3 -0.5,1.3 -0.5,1.3 0.8,0.5 0.8,0.6 -0.5,2.6 -0.5,2.6 -3.1,1.9 -3,1.8 -4.2,0.7 -4.1,0.6 -3.9,-2 -3.9,-2 -2.4,-2.6 -2.3,-2.5 v -2.6 -2.7 l 4.3,-4.5 4.4,-4.5 2,-0.7 1.9,-0.8 4.9,2.5 4.8,2.5 z"
     id="path939" />
  <path
     style="fill:none;stroke:#000000;stroke-width:0.1;stroke-opacity:1"
     d="m 141.9,245.4 2.2,2.4 0.6,5.4 0.5,5.4 -4.1,3.7 -4.1,3.7 h -2 -2.1 l -2.5,-2.5 -2.5,-2.5 -1.3,-3.1 -1.3,-3.2 1.5,-4 1.6,-4 3.1,-1.8 3,-1.9 h 2.6 2.6 z"
     id="path937" />
  <path
     style="fill:none;stroke:#000000;stroke-width:0.1;stroke-opacity:1"
     d="m 168.9,234.3 4.5,2.2 1.8,3.6 1.9,3.7 1.5,7.8 1.4,7.9 0.9,4 0.9,4 1.2,4.5 1.1,4.5 1,4.8 1.1,4.7 -1.5,2.4 -1.6,2.4 0.6,0.5 0.5,0.6 2.7,-0.5 2.6,-0.5 4.2,4.3 4.3,4.4 0.6,4.5 0.6,4.5 -5.1,5.7 -5.2,5.6 -2.2,0.6 -2.2,0.7 -6.7,3.4 -6.7,3.5 h -3.3 l -3.3,0.1 -4.5,-2.1 -4.5,-2.1 -2.5,-1.9 -2.5,-2 -3.5,-0.4 -3.5,-0.5 -3.3,-0.8 -3.3,-0.7 -1.6,-2.4 -1.6,-2.4 0.7,-5.7 0.7,-5.6 2.3,-4.1 2.4,-4 3,-2.9 3.1,-2.8 3.8,0.7 3.8,0.6 2,1.3 2,1.2 h 2.5 l 2.5,-0.1 0.3,-3.8 0.3,-3.7 h -1.3 -1.4 l -4.8,-3 -4.7,-3 -2.1,-4.7 -2.1,-4.7 0.2,-6.9 0.2,-7 1.3,-3.1 1.3,-3.2 -0.2,-4.2 -0.3,-4.1 3.5,-4.7 3.6,-4.6 4.1,0.6 4.1,0.7 z"
     id="path935" />
  <path
     style="fill:none;stroke:#000000;stroke-width:0.1;stroke-opacity:1"
     d="m 78.4,229.8 3.4,4.7 1.5,7 1.6,7 2.2,6 2.1,6 -0.1,4.8 -0.1,4.7 -1.4,2.8 -1.4,2.7 -3,2.9 -3.1,2.8 -2.3,-0.5 -2.3,-0.6 -1,-0.3 -1,-0.2 -8,-2.7 -8,-2.7 -5.7,-5.8 -5.8,-5.8 v -3.1 l 0.1,-3 1.2,-2.9 1.3,-2.9 -1.7,-8.1 -1.6,-8.1 1.4,-1.6 1.4,-1.6 4,-0.6 4,-0.5 3.9,-2.7 3.8,-2.6 2.8,-0.8 2.9,-0.8 2.7,1 2.8,0.9 z"
     id="path933" />
  <path
     style="fill:none;stroke:#000000;stroke-width:0.1;stroke-opacity:1"
     d="m 32.2,226.7 5.6,5.8 0.7,4.5 0.7,4.5 v 6.2 l 0.1,6.3 -2.6,3.4 -2.6,3.3 -2.5,0.5 -2.4,0.5 -2.9,-1.2 -2.8,-1.2 -3,-3.6 -3,-3.5 -2,-2.9 -2,-2.8 -0.1,-0.8 -0.1,-0.7 -0.3,-0.8 -0.2,-0.7 0.1,-2.5 0.2,-2.5 1,-4.6 1,-4.7 0.3,-1.6 0.2,-1.6 1.1,-1.1 1.1,-1.1 2.4,-1.3 2.3,-1.3 2,-0.1 2.1,-0.1 z"
     id="path931" />
  <path
     style="fill:none;stroke:#000000;stroke-width:0.1;stroke-opacity:1"
     d="m 206.2,212.1 3,2.2 3.5,5.6 3.6,5.6 1.9,2.1 1.9,2.1 2.8,5.4 2.8,5.4 1.6,5 1.6,5 0.6,4.2 0.7,4.3 -1.8,8.2 -1.8,8.3 -5.3,5.2 -5.2,5.1 -2.3,0.8 -2.3,0.7 -4.1,2.8 -4.2,2.8 -4.5,-4.8 -4.6,-4.9 -0.6,-3.8 -0.6,-3.9 -1.1,-2.1 -1,-2.1 -0.4,-3.9 -0.4,-3.9 -0.6,-4.5 -0.6,-4.5 -1.4,-1.6 -1.4,-1.5 -1.5,-8 -1.5,-7.9 v -1.7 -1.8 l 6.3,-6.7 6.3,-6.8 3.3,-4.3 3.3,-4.2 h 0.5 0.5 z"
     id="path929" />
  <path
     style="fill:none;stroke:#000000;stroke-width:0.1;stroke-opacity:1"
     d="m 52.1,203.1 3.6,1.8 3.1,2.6 3,2.5 2,3.4 2,3.4 -3.2,3.1 -3.2,3.1 h -0.6 -0.7 l -2.8,1.2 -2.8,1.1 -1.1,0.2 -1.2,0.3 -2.9,0.6 -2.9,0.7 -7.8,-7.3 -7.8,-7.2 0.5,-3.8 0.5,-3.9 1.7,-2.5 1.6,-2.5 7.7,0.7 7.7,0.6 z"
     id="path927" />
  <path
     style="fill:none;stroke:#000000;stroke-width:0.1;stroke-opacity:1"
     d="m 137.8,184.4 3.8,2.4 2.8,3.6 2.7,3.6 -0.3,2.7 -0.3,2.6 -2.5,1.8 -2.5,1.9 -3.6,-1 -3.5,-1 -2.8,-2.9 -2.8,-2.9 -0.5,-4.6 -0.6,-4.6 1.8,-2 1.8,-2 h 1.4 1.3 z"
     id="path925" />
  <path
     style="fill:none;stroke:#000000;stroke-width:0.1;stroke-opacity:1"
     d="m 178.3,178 6.6,4 h 0.9 1 l 5,4.5 4.9,4.4 1.3,3.1 1.3,3 -0.6,4.1 -0.5,4.1 -1.9,2 -1.8,2 -4.5,3.1 -4.5,3.1 -4.4,4.9 -4.5,4.9 -2,0.8 -2.1,0.7 -4.4,-1.3 -4.4,-1.3 -2.8,-2.7 -2.8,-2.7 -0.7,-3 -0.6,-3 -1.9,-3 -1.8,-3.1 0.5,-0.8 0.5,-0.8 -1.1,-2 -1.1,-2.1 1.3,-3.7 1.2,-3.7 1,-1.4 1.1,-1.4 0.2,-4.6 0.3,-4.6 4,-3.8 3.9,-3.7 h 3.4 3.3 z"
     id="path923" />
  <path
     style="fill:none;stroke:#000000;stroke-width:0.1;stroke-opacity:1"
     d="m 249.2,175 3.8,1.1 2.9,4.3 3,4.3 2.4,9.9 2.5,9.9 1.2,7.8 1.3,7.8 0.9,0.5 0.9,0.6 3.2,0.5 3.2,0.5 2.5,1.3 2.5,1.3 2.4,2.6 2.5,2.6 1.8,5.8 1.8,5.7 v 3.4 3.4 l -4.7,4.4 -4.8,4.4 -4,0.6 -3.9,0.6 -2.1,2.3 -2,2.2 -4.3,5.5 -4.3,5.5 -5,2.7 -5.1,2.6 -4.6,0.6 -4.7,0.5 -2.4,-2.5 -2.3,-2.6 1.1,-7.8 1.2,-7.8 0.4,-2.7 0.4,-2.6 0.2,-0.9 0.2,-0.8 -0.7,-5 -0.7,-5 -1.7,-5.5 -1.6,-5.5 -1.8,-3.6 -1.8,-3.5 -3.6,-3.5 -3.6,-3.4 -2.9,-5.8 -2.9,-5.7 h -1 -0.9 l -3.6,-5.2 -3.5,-5.3 v -4.1 -4.2 l 4.9,-4.4 4.8,-4.3 4.9,-2.8 4.9,-2.7 9.5,0.5 9.5,0.5 z"
     id="path921" />
  <path
     style="fill:none;stroke:#000000;stroke-width:0.1;stroke-opacity:1"
     d="m 328.1,151.3 3.4,2.2 2.2,3.4 2.2,3.3 -0.6,4.6 -0.6,4.5 1,-0.6 1.1,-0.7 1.1,1.4 1.1,1.3 -1.4,1.2 -1.4,1.2 -0.7,-1.1 -0.7,-1.1 -1.4,0.5 -1.3,0.5 -3,-3.6 -3,-3.7 -3.2,-6.2 -3.2,-6.3 1.2,-1.5 1.3,-1.6 h 1.3 1.2 z"
     id="path919" />
  <path
     style="fill:none;stroke:#000000;stroke-width:0.1;stroke-opacity:1"
     d="m 199.6,157.2 2.8,7.3 3.9,4.8 4,4.8 -4.4,4.5 -4.3,4.4 -2,-1.9 -2.1,-1.9 -2.3,-1.2 -2.4,-1.2 -4,-3.6 -3.9,-3.5 -1.5,-2.8 -1.4,-2.8 v -5.4 -5.4 l 2.3,-3.4 2.3,-3.4 2.9,-0.6 3,-0.6 2.1,2.3 2.2,2.2 z"
     id="path917" />
  <path
     style="fill:none;stroke:#000000;stroke-width:0.1;stroke-opacity:1"
     d="m 219.8,146.7 3.3,2.8 1.2,6.8 1.1,6.8 -1,1.6 -0.9,1.5 -5.4,3 -5.3,3 -1.3,-0.6 -1.4,-0.5 -1.6,-3.3 -1.6,-3.3 -2.9,-5 -3,-5 v -1.7 -1.6 l 2.5,-3.1 2.6,-3 3.2,-0.4 3.2,-0.4 2,-0.1 2.1,-0.2 z"
     id="path915" />
  <path
     style="fill:none;stroke:#000000;stroke-width:0.1;stroke-opacity:1"
     d="m 306.6,146.1 4.1,1.9 5.4,5.3 5.4,5.3 2,5.4 2,5.3 3.6,2.9 3.6,2.9 1.2,3.9 1.2,4 -1.5,2.7 -1.4,2.8 -3.4,3.1 -3.3,3 -2.5,1.5 -2.5,1.5 -5,1.9 -5,1.8 -3.8,3.4 -3.7,3.3 h -0.9 -0.8 l -6.9,4.5 -6.8,4.5 h -3.1 -3 l -3.2,-2 -3.2,-1.9 -1.9,-3.8 -1.9,-3.8 -0.8,-2.5 -0.7,-2.5 -1.1,-1.3 -1.1,-1.4 -0.1,-1.6 -0.2,-1.7 -1.2,-7 -1.2,-7 -0.4,-2.9 -0.5,-2.9 4.7,-4.4 4.8,-4.4 5.2,-3.5 5.2,-3.4 1.5,-5.4 1.6,-5.3 1.5,-1.3 1.5,-1.2 3.7,-1.3 3.8,-1.4 2.5,0.6 2.5,0.5 z"
     id="path913" />
  <path
     style="fill:none;stroke:#000000;stroke-width:0.1;stroke-opacity:1"
     d="m 157.4,130.9 0.6,0.9 4.3,0.7 4.2,0.7 3.6,2.3 3.6,2.3 3,3.9 3.1,3.8 -1.3,2.5 -1.3,2.5 -0.6,6.5 -0.7,6.5 -2.1,2.2 -2.1,2.2 h -3.1 l -3.1,-0.1 -2.7,1 -2.6,1.1 -1,-1.2 -0.9,-1.2 -0.8,-5 -0.7,-5 -2.4,-6.2 -2.5,-6.2 -0.9,-5.7 -1,-5.8 1.7,-1.8 1.6,-1.8 h 1.8 1.8 z"
     id="path911" />
  <path
     style="fill:none;stroke:#000000;stroke-width:0.1;stroke-opacity:1"
     d="m 138.6,130.2 1.9,2.3 1.6,3.5 1.7,3.5 3.7,12 3.8,12 1,1.3 1,1.3 -1.1,3.7 -1.2,3.8 -2.9,2.8 -3,2.9 -4.8,-0.6 -4.8,-0.7 -3.1,-3.4 -3,-3.5 -3.3,-8.6 -3.3,-8.6 -0.4,-3.7 -0.5,-3.6 -0.4,-0.4 -0.3,-0.4 1.5,-5.1 1.5,-5.2 2.6,-2.8 2.6,-2.8 3.1,-0.8 3,-0.9 0.6,-0.1 0.6,-0.1 z"
     id="path909" />
  <path
     style="fill:none;stroke:#000000;stroke-width:0.1;stroke-opacity:1"
     d="m 113.5,121.8 7,6.7 -2.2,4.5 -2.2,4.5 v 1.2 l -0.1,1.1 -2.9,2.5 -3,2.4 3.6,6.9 3.5,6.8 2.3,7.1 2.4,7 1.7,4 1.6,4 -0.4,11.3 -0.4,11.4 1,0.4 1.1,0.3 2.5,0.5 2.5,0.4 2.7,1.1 2.7,1 4.7,4.5 4.7,4.5 -0.7,6.3 -0.7,6.2 -3,3.7 -2.9,3.7 -5.3,1.6 -5.2,1.7 -4,-0.3 -4,-0.3 -0.6,7.5 -0.6,7.5 -1.6,3.8 -1.6,3.7 -1.3,0.5 -1.3,0.5 -5.7,0.8 -5.8,0.9 -2.2,-1.1 -2.1,-1.1 -1.9,-3.7 -2,-3.7 -1.9,-8 -1.9,-7.9 0.4,-10.3 0.5,-10.4 2.3,-1.8 2.3,-1.9 1.1,-4.8 1.1,-4.9 -0.4,-13.8 -0.3,-13.8 -1,-6.3 -1.1,-6.2 -0.7,-17.8 -0.7,-17.7 v -6 -6 l 2.9,-4.4 2.8,-4.4 3.7,3.7 3.6,3.7 z"
     id="path907" />
  <path
     style="fill:none;stroke:#000000;stroke-width:0.1;stroke-opacity:1"
     d="m 155.9,105.1 4,2 5.8,0.6 5.8,0.5 2.2,1.4 2.3,1.4 6.9,8.2 7,8.2 -1.1,1.3 -1,1.3 -2.4,-0.6 -2.4,-0.6 -1.3,1 -1.2,1 -6,-0.3 -6,-0.3 -6.5,-1.2 -6.5,-1.1 -1.7,-0.3 -1.6,-0.2 -1.5,-1.2 -1.4,-1.2 -1.3,-4.2 -1.4,-4.3 0.3,-4.5 0.3,-4.5 1.4,-2.3 1.4,-2.2 h 1 0.9 z"
     id="path905" />
  <path
     style="fill:none;stroke:#000000;stroke-width:0.1;stroke-opacity:1"
     d="m 56.5,105.1 3.5,3.1 v 2.2 2.1 l -1.1,3.7 -1,3.8 -2.3,2.7 -2.3,2.7 -3.2,-2.3 -3.1,-2.3 -1.6,-3 -1.5,-3 -0.1,-2.8 -0.1,-2.9 1.7,-2.6 1.7,-2.6 2.2,-0.9 2.2,-0.9 h 0.7 l 0.7,-0.1 z"
     id="path903" />
  <path
     style="fill:none;stroke:#000000;stroke-width:0.1;stroke-opacity:1"
     d="m 194.5,102.6 3.4,1.6 5,5.3 5.1,5.4 v 2 2 l -3.3,2.5 -3.3,2.6 -4.5,1.5 -4.4,1.6 -2.7,-3.3 -2.8,-3.2 v -1.1 -1.1 l -4,-5.3 -4.1,-5.4 3.3,-3.4 3.2,-3.3 h 2.9 2.9 z"
     id="path901" />
  <path
     style="fill:none;stroke:#000000;stroke-width:0.1;stroke-opacity:1"
     d="m 84.4,102 2.9,2.8 -0.3,6.9 -0.3,6.8 0.1,4.5 0.1,4.5 1.1,31 1.1,31 0.4,5 0.4,5 -1.1,6.8 -1.1,6.8 -1.9,2.5 -1.9,2.4 h -2.3 -2.3 l -5.2,-5.4 -5.1,-5.5 v -1 -1 l -7.7,-5.5 -7.8,-5.4 -1.2,-2 -1.2,-2.1 6,-11.8 6,-11.8 0.5,-6.2 0.6,-6.2 -2.6,-5.7 -2.6,-5.6 v -4.4 -4.3 l 1.1,-2.8 1.1,-2.8 1.5,-6.5 1.5,-6.5 0.2,-4.2 0.1,-4.3 2.8,-3.5 2.7,-3.5 3.3,-0.9 3.2,-1 2.5,0.5 2.5,0.5 z"
     id="path899" />
  <path
     style="fill:none;stroke:#000000;stroke-width:0.1;stroke-opacity:1"
     d="m 124,96.7 2.5,1.6 3.2,3 3.2,3 1.1,3.1 1.2,3.1 1,2.2 1.1,2.1 -2.2,3.1 -2.2,3 -4.7,1.4 -4.7,1.4 -2.5,-1.3 -2.5,-1.2 -4.7,-4.1 -4.7,-4.2 -3.1,-3.9 -3.1,-3.9 1.7,-2.6 1.7,-2.6 4.6,-2.4 4.6,-2.4 3,-0.1 h 3.1 z"
     id="path897" />
  <path
     style="fill:none;stroke:#000000;stroke-width:0.1;stroke-opacity:1"
     d="m 182.8,84.7 3.2,3.6 v 1.7 1.7 l -2.3,2.1 -2.2,2.1 -5.7,2.5 -5.6,2.5 -4.4,-0.5 -4.3,-0.5 -3.1,-1 -3.1,-1 -2.2,-2.3 -2.2,-2.3 0.6,-2.5 0.7,-2.6 3.3,-3.2 3.4,-3.3 3.9,0.7 3.9,0.6 3.9,-1.5 3.9,-1.4 2.5,0.5 2.5,0.5 z"
     id="path895" />
  <path
     style="fill:none;stroke:#000000;stroke-width:0.1;stroke-opacity:1"
     d="m 103.1,80 3.5,1 2.9,3 2.9,3 -3,3.1 -2.9,3.1 -3.7,1.9 -3.7,1.9 H 95.7 92.3 L 90,94.5 87.7,92 l -1.2,1 -1.2,1 -1.7,-1.9 -1.8,-2 4.1,-2.5 L 90,85 v -1 -1 l 3.3,-2 3.2,-2 h 1.5 1.5 z"
     id="path893" />
  <path
     style="fill:none;stroke:#000000;stroke-width:0.1;stroke-opacity:1"
     d="m 22.7,60 1,4.9 -2.1,3.7 -2.1,3.8 L 15,75 10.5,77.7 8.8,76.9 7.2,76 5.1,72.6 3,69.3 V 66.6 64 L 1.8,62 0.5,60 2.2,58.4 3.8,56.7 H 6.4 9 l 1.1,-1.3 1.1,-1.4 h 1.2 1.1 l 1.3,-2.1 1.4,-2.1 2.8,2.7 2.8,2.6 z"
     id="path891" />
  <path
     style="fill:none;stroke:#000000;stroke-width:0.1;stroke-opacity:1"
     d="m 313.2,38.8 7.3,7.9 7.7,6.2 7.8,6.2 3.4,4.3 3.5,4.2 0.2,3 0.1,2.9 -1.5,4.1 -1.5,4.1 0.4,5.3 0.4,5.3 1.6,5.4 1.5,5.3 -0.6,1.9 -0.6,1.9 -7.6,6.8 -7.6,6.8 -1.2,0.2 -1.3,0.2 -3.1,2.3 -3,2.2 -1.6,3.3 -1.6,3.4 -3.5,2.6 -3.5,2.7 -4.5,-0.1 h -4.6 l -7.1,-1.7 -7.2,-1.7 -4.1,-4 -4.2,-4 -2.3,-1.2 -2.4,-1.2 -0.1,-0.9 -0.1,-1 -0.6,-1.8 -0.7,-1.7 -0.5,-1.7 -0.6,-1.6 -0.5,-3.2 -0.5,-3.3 -1.9,-5.3 -2,-5.3 1,-1 1,-1 V 94 92.3 l -2,-1.8 -2,-1.8 -0.6,-3.3 -0.6,-3.4 -0.9,-0.6 -0.9,-0.5 v -1.8 -1.7 l 3.8,-3.6 3.7,-3.5 5.7,-3 5.6,-3 3.4,0.3 3.3,0.2 3.3,0.7 3.2,0.7 v -0.8 -0.8 l -2.7,-2.8 -2.7,-2.8 4.4,-8.3 4.3,-8.2 1.8,-2.3 1.7,-2.2 -0.5,-1.9 -0.5,-1.9 2.3,-1.6 2.3,-1.6 h 1.7 1.7 z"
     id="path889" />
  <path
     style="fill:none;stroke:#000000;stroke-width:0.1;stroke-opacity:1"
     d="m 65.4,22.5 3.4,2.6 0.6,1.4 0.5,1.4 5.7,3.8 5.8,3.8 2.6,4.5 2.6,4.5 -0.9,7.5 -0.9,7.5 -0.2,9 -0.1,9 -2.2,3.5 -2.2,3.5 -2.3,2.1 -2.3,2.2 -3.5,1.5 -3.5,1.6 -3.9,1.5 -3.8,1.6 H 53 45.3 L 43.8,93.2 42.4,91.5 41.2,89 40,86.5 l -1.2,-2 -1.3,-2 -2.3,-3.3 -2.4,-3.3 0.4,-8.5 0.5,-8.5 1.1,-1.1 1,-1 L 31.9,53 28,49.3 v -2 -2.1 L 26.5,41.7 25,38.1 v -3.9 -3.8 l 3.4,-3.3 3.4,-3.3 6.3,-0.8 6.4,-0.9 5.5,-1.4 5.5,-1.5 3.2,0.3 3.2,0.3 z"
     id="path887" />
  <path
     style="fill:none;stroke:#000000;stroke-width:0.1;stroke-opacity:1"
     d="M 4,1.5 V 3 L 2,4.2 0,5.5 v 4.4 4.4 l 1.7,1.3 1.8,1.3 1.6,0.1 h 1.6 l 5.2,5 5.2,5 -0.7,7.7 -0.7,7.8 -1,1.3 -1.1,1.4 L 8.8,47.6 4.1,50 H 2 0 v 9.8 9.9 l 2,1.8 2,1.8 0.8,3.1 0.8,3.1 -0.9,4 -0.9,4 -1.9,1.7 -1.9,1.6 v 10.6 10.5 l 1.5,-0.5 1.4,-0.6 1.2,-3.5 1.1,-3.5 v -5.1 -5.1 l 2.6,-3.6 2.6,-3.5 3,-2.7 3.1,-2.7 1.7,-0.1 h 1.7 l 0.5,-0.9 0.6,-0.8 2.4,0.4 2.5,0.5 4.1,5.3 4,5.2 v 1.9 2 l 1.1,1.1 1,1 -2,5.9 -2.1,5.8 v 2.3 2.2 l 5.3,6.1 5.2,6.1 3.3,4.6 3.2,4.5 v 3.9 3.9 l -4.1,2.6 -4.1,2.6 -5.2,0.5 -5.3,0.5 -2.4,-1.2 -2.4,-1.3 -6.8,-5.1 -6.9,-5.1 L 8.9,133 6,130.5 4.1,125 l -1.9,-5.5 -0.9,0.2 -0.8,0.3 -0.3,9.6 -0.3,9.6 1.8,1.4 1.8,1.3 2.5,0.6 2.5,0.6 4.7,4.7 4.8,4.6 v -0.9 -1 l 3.8,4.3 3.7,4.3 4.3,-1.5 4.2,-1.5 v 0.5 0.4 l 3.8,-2.4 3.7,-2.5 4.3,-1.6 4.2,-1.7 1.7,1.3 1.6,1.4 1.4,3.3 1.3,3.2 -1.1,4.8 -1.2,4.7 -1.8,2 -1.8,2 -1.5,3.5 -1.4,3.5 -0.7,5.7 -0.7,5.7 -1.9,1.7 -1.9,1.7 -5.1,0.3 -5.2,0.2 -4.6,-1.4 -4.6,-1.4 h -3.1 -3.1 l -0.6,0.6 -0.5,0.6 1,3.1 1.1,3.2 1.6,1.9 1.6,1.8 -0.2,4.5 -0.2,4.4 -1.5,2.4 -1.6,2.4 -3.5,1 -3.6,1 -3.7,-1.3 -3.7,-1.3 -1.3,0.4 -1.2,0.5 v 3.8 3.8 l 3.5,0.6 3.4,0.7 1.9,2.4 1.9,2.4 -0.9,5.3 -1,5.3 -1.1,1.3 -1.1,1.4 -3.3,-0.7 -3.3,-0.6 v 2 2 l 7.1,6 7.2,6 2.5,3.5 2.4,3.5 -2.7,3.5 -2.6,3.5 -3.5,2.6 -3.5,2.7 -1.2,0.2 -1.2,0.2 -2.3,1.4 -2.2,1.5 v 5.5 5.6 l 1.1,1.1 1.1,1.1 3.6,-0.5 3.7,-0.5 3.3,4.1 3.2,4 2,4.5 1.9,4.5 0.6,3.5 0.7,3.4 -1.2,5.6 -1.1,5.5 2,4.7 2.1,4.7 v 1.2 1.2 l 2,1.8 2,1.8 v 1.3 1.3 l -4.7,3.8 -4.6,3.8 -4.1,-0.2 -4.1,-0.1 -0.1,2.7 -0.1,2.7 -3.7,5.2 -3.8,5.2 H 0.9 0 v 1.8 1.9 l 2.5,1.1 2.6,1.2 0.5,1.5 0.6,1.5 h 3.7 l 3.6,-0.1 1.9,-2.5 1.8,-2.6 -1.1,-1.1 -1.1,-1.1 v -1.3 -1.3 l 3.6,-3.9 3.5,-4 3,-0.6 3,-0.7 2.1,1.9 2,1.8 2.2,4 2.1,4 1.1,3.5 1.1,3.5 34.1,0.3 34.2,0.2 v -0.8 -0.8 l -1,-1 -0.9,-0.9 1.1,-4.2 1,-4.3 5.9,-6.4 5.9,-6.4 2.3,0.6 2.2,0.5 5.5,3 5.5,2.9 2.2,2 2.1,2 -0.2,2.3 -0.3,2.3 -2.2,2.8 -2.2,2.9 1.3,0.4 1.3,0.4 1.7,1.4 1.6,1.4 2.9,-0.3 2.8,-0.3 v -1 -1 l 0.8,-1.3 0.8,-1.2 -0.6,-0.9 -0.5,-1 1,-0.6 1,-0.6 v -2.4 -2.4 l 3.3,-2.2 3.2,-2.3 5.3,-4.5 5.2,-4.5 v -1.7 -1.6 l 2,-2.6 2,-2.5 v -2.1 -2 l 3.4,-2.7 3.4,-2.7 8.6,-3.7 8.6,-3.7 1.8,-1.6 1.7,-1.5 5.4,-3.6 5.3,-3.6 h 2.2 2.2 l 3.4,-3.5 3.5,-3.6 4.2,-2.5 4.3,-2.5 0.9,-1.7 0.9,-1.7 0.7,-4.1 0.6,-4.2 2.9,-2.7 2.8,-2.7 7.3,-0.4 7.3,-0.5 1.6,-1.3 1.5,-1.4 6,-3.1 5.9,-3.2 1.6,-1.3 1.5,-1.4 2.2,-0.6 2.2,-0.7 3.6,1.5 3.6,1.5 2,4.6 2.1,4.6 -1.6,4.7 -1.5,4.7 -0.9,3.6 -0.9,3.5 0.8,2.1 0.7,2 5,2.6 5.1,2.6 0.4,-1.2 0.4,-1.2 -1,-2.5 -0.9,-2.5 -0.1,-6.9 -0.1,-6.8 2.7,-2.4 2.8,-2.4 h 4.4 4.5 l 5.8,5.7 5.8,5.8 2.9,5.8 2.8,5.8 0.5,4.8 0.4,4.7 -2.1,4.7 -2.1,4.6 1,2.5 1,2.6 h 1 1.1 l 5.2,4.8 5.2,4.8 4.1,3.2 4.2,3.2 7.8,3.7 7.9,3.6 2,1.8 2,1.8 1,-0.1 1,-0.1 1.2,2.4 1.2,2.3 4.8,7.3 4.8,7.3 h 1.8 1.7 v -2.4 -2.4 l -1.6,-1.3 -1.6,-1.3 -0.8,-2.1 -0.8,-2 -0.2,-1 -0.2,-1 -3.4,-4.2 -3.4,-4.1 v -1 -1 l 3.9,-3.5 3.9,-3.5 2.1,-0.7 2.1,-0.6 v -18.6 -18.6 l -1.7,-1.4 -1.8,-1.4 -4.5,-2.2 -4.5,-2.3 -9.5,-7.5 -9.5,-7.6 -4.5,-2.7 -4.5,-2.7 -4,-3 -4,-2.9 -4,-1.9 -4,-1.9 -1.6,-1.9 -1.5,-1.8 -1.8,-4.5 -1.8,-4.5 -0.8,-2.1 -0.8,-2.1 -3.9,-0.6 -3.8,-0.6 -4.6,-2.9 -4.5,-2.9 -1.7,-6.1 -1.7,-6.2 v -1.5 -1.5 l -1.1,-1.8 -1.1,-1.7 1.1,-2.7 1,-2.7 4.1,-2.6 4,-2.5 4.2,-2.8 4.1,-2.7 4.6,-2.6 4.6,-2.6 5,-2.6 5,-2.7 h 1.3 1.2 l 5.4,-5.5 5.3,-5.5 h 3 3.1 l 3.8,3.8 3.9,3.7 3.9,7.5 3.9,7.5 3.3,4.2 3.4,4.2 3.1,6 3.1,6.1 h 0.9 0.9 v -9.6 -9.5 l -0.9,0.5 -0.9,0.6 -1.1,-1.4 -1.1,-1.3 1.3,-1.2 1.4,-1.1 0.6,0.7 0.7,0.6 v -1 -1.1 l -1.5,-1.2 -1.5,-1.2 -1.5,1.2 -1.6,1.3 -2.8,-2.7 -2.9,-2.7 -2.7,-5.2 -2.8,-5.2 -3.4,-3.8 -3.3,-3.7 v -2.5 -2.4 l 3.1,-2.3 3.1,-2.3 2.5,0.3 2.5,0.4 5,3.8 5.1,3.8 1.3,-0.5 1.4,-0.5 v -1.3 -1.4 l -5,-4.2 -5,-4.2 v -1.9 -1.9 l 2.9,-5.7 2.9,-5.7 2.1,-1.9 2.1,-1.9 v -9.7 -9.8 l -1.5,-1.2 -1.5,-1.2 0.1,3.8 0.2,3.9 -1.6,3.8 -1.7,3.9 -2.9,4.3 -2.9,4.2 -1.1,3.4 -1.1,3.4 -1.9,3.1 -1.9,3.1 -2.7,0.5 -2.7,0.6 -1.9,-0.5 -1.9,-0.5 -3,-4.5 -3,-4.4 v -1.7 -1.8 l -3.3,-6.9 -3.4,-7 -3.6,-2.8 -3.7,-2.8 v -1.3 -1.4 l -1.5,-1.2 -1.5,-1.2 v -0.8 -0.7 l 6,-4.6 6,-4.7 h 0.8 0.8 l 4.9,-4.5 5,-4.5 2.3,-0.6 2.3,-0.6 5.5,0.4 5.5,0.5 4.2,2.9 4.2,3 v 2.2 2.2 l 1,0.2 1,0.3 0.3,-10.4 0.3,-10.3 -3.2,2.6 -3.2,2.7 -2.4,-0.6 -2.3,-0.5 -4.4,-0.6 -4.4,-0.7 -3.5,-2.8 -3.5,-2.9 -0.8,-3.7 -0.8,-3.8 0.3,-6.4 0.3,-6.4 1.4,-3.2 1.3,-3.2 2.3,-1.5 2.3,-1.5 4.7,-0.6 4.7,-0.6 2.2,1.7 2.2,1.8 3.3,-1.5 3.4,-1.5 v -2.9 -2.9 l -2.9,-2.8 -3,-2.7 -1,1 -1.1,1.1 -1.7,0.4 -1.8,0.4 -7.3,-0.1 -7.2,-0.2 -2.3,-0.8 -2.3,-0.9 -7.9,-7.3 -8,-7.3 -10.1,-10.2 -10.1,-10.2 -1.7,-3.6 -1.7,-3.7 0.5,-1.7 0.5,-1.7 0.6,-5 0.6,-5 0.5,-1.8 0.5,-1.7 h -3.4 -3.5 l -1.1,5 -1.1,5.1 v 1.8 1.8 l -2,2.6 -2,2.5 -3,0.7 -3,0.7 -5.7,-1.7 -5.7,-1.7 -7.5,-3.9 -7.6,-4 -3.5,-2.4 -3.5,-2.4 -2.7,-2 -2.6,-2.1 h -4.5 -4.6 l -0.6,0.9 -0.5,1 2.2,1.6 2.3,1.6 7.2,5.4 7.2,5.3 6.3,3 6.3,3 5,1.8 5,1.8 2.8,2.7 2.7,2.7 v 2.6 2.5 l -1.2,2.8 -1.2,2.8 -2.3,3.1 -2.3,3.1 v 1 1.1 l -3.4,3 -3.5,3 -2.3,0.7 -2.3,0.7 -1.5,1.3 -1.5,1.2 -5,1.3 -5,1.3 -1,0.7 -1,0.8 -3.2,-0.3 -3.3,-0.3 v 3.5 3.4 l 3.5,10.4 3.4,10.3 1.1,6.9 1.1,6.8 0.9,4.1 0.9,4.1 1.2,2.9 1.2,2.9 0.1,0.5 0.1,0.5 2.7,4.5 2.6,4.5 6.6,6.1 6.6,6.1 v 2.5 2.6 l -6.5,7 -6.6,7.1 -4.7,3.4 -4.7,3.5 -3,0.3 -3,0.2 -6.5,-0.7 -6.5,-0.8 -3.7,-1.9 -3.8,-1.9 -1.5,-3 -1.6,-3 -0.8,-4.7 -0.9,-4.8 1.3,-3.2 1.4,-3.3 3.2,-1.9 3.2,-1.9 1.2,0.4 1.2,0.5 1.3,-1.5 1.2,-1.6 1,0.6 1,0.7 -0.7,-3.4 -0.7,-3.4 -0.5,-0.7 -0.4,-0.7 -3.5,-0.7 -3.6,-0.7 -3.8,1.2 -3.8,1.1 -1.5,2.4 -1.6,2.4 -3.5,2.1 -3.5,2.2 -3.3,-0.6 -3.3,-0.6 -1.6,-0.3 -1.7,-0.2 -1.6,-1.3 -1.6,-1.3 v -1.9 -1.9 l 4.5,-4.7 4.5,-4.7 v -1.9 -1.9 l -2.1,-3.7 -2,-3.6 1.5,-3 1.5,-2.9 -1.1,-1.3 -1,-1.3 h -1.8 -1.7 l -6.4,-6.3 -6.4,-6.2 -1.5,-3 -1.5,-3 -3.5,-4.8 -3.5,-4.7 -1.5,0.6 -1.5,0.7 -8.5,0.9 -8.4,0.9 -3.1,-1.2 -3,-1.2 -1.9,-1.6 -1.8,-1.6 -2.5,-4.8 -2.4,-4.8 0.6,-4.7 0.7,-4.7 1.5,-6.8 1.5,-6.9 4.1,-6 4.2,-6.1 1.4,-1.9 1.4,-2 -0.9,-6.9 -1,-6.9 0.8,-2.1 L 164,2.7 162.9,1.4 161.8,0 h -2.2 l -2.1,0.1 -2.8,2.5 -2.9,2.5 1.2,1.4 1.2,1.4 -0.8,2.3 -0.7,2.3 -0.2,1.5 -0.1,1.5 -4.3,8.5 -4.2,8.5 0.5,4.8 0.5,4.7 -1.5,4.2 -1.5,4.2 -2,2.2 -2,2.1 1.1,2.4 1.1,2.4 1.9,3.5 1.9,3.5 2,5.1 1.9,5 -1.9,6 -2,5.9 -2,1.7 -2,1.7 -5.6,-2 -5.7,-1.9 -2.7,-2.6 -2.6,-2.5 0.4,-2.2 0.3,-2.2 -0.7,-1 -0.8,-1 -2.7,-1.8 -2.7,-1.7 h -6.4 -6.4 l -3,-1.5 -3.1,-1.5 -1,-1.3 -1,-1.2 -2.1,-3.8 -2.1,-3.8 v -3.7 -3.7 l 1,-3.7 1.1,-3.7 2.4,-1.9 2.5,-2 v -3 -3 l -1.2,-0.9 -1.3,-1 -4.7,-1.6 -4.6,-1.5 -9.4,-7.5 -9.3,-7.4 -1.3,-1.6 -1.4,-1.6 0.6,-6.1 0.5,-6.1 -3.7,0.3 -3.7,0.3 -0.1,4.9 -0.2,4.8 -1.3,1.3 -1.4,1.2 -13,1.3 -13,1.4 H 26.4 L 22.3,15.5 16.6,11.7 11,8 10.4,5.3 9.7,2.5 8.7,1.2 7.8,0 H 5.9 4 Z"
     id="path4" />
</svg>
